<svg width="459" height="71" viewBox="0 0 459 71" fill="none" xmlns="http://www.w3.org/2000/svg">
<path d="M277.335 25.2147L280.164 27.1096C279.245 28.4685 277.049 30.7997 273.252 30.7997C268.537 30.7997 265.025 27.1346 265.025 22.4721C265.025 17.5105 268.574 14.1445 272.855 14.1445C277.161 14.1445 279.27 17.5853 279.953 19.4428L280.325 20.3902L269.232 25.0028C270.076 26.6733 271.391 27.521 273.252 27.521C275.113 27.521 276.404 26.5985 277.335 25.2147ZM268.636 22.2103L276.044 19.1186C275.635 18.0839 274.419 17.3484 272.967 17.3484C271.118 17.3484 268.549 18.994 268.636 22.2103Z" fill="#FF302F"/>
<path d="M259.678 5.6543H263.251V30.0386H259.678V5.6543Z" fill="#20B15A"/>
<path d="M254.045 14.7926H257.494V29.6027C257.494 35.7486 253.883 38.2793 249.615 38.2793C245.594 38.2793 243.175 35.5616 242.269 33.3551L245.433 32.0336C246.004 33.3925 247.381 35.0006 249.615 35.0006C252.357 35.0006 254.045 33.2927 254.045 30.1013V28.9046H253.921C253.102 29.9019 251.538 30.7995 249.553 30.7995C245.408 30.7995 241.611 27.1717 241.611 22.4968C241.611 17.797 245.408 14.1318 249.553 14.1318C251.526 14.1318 253.102 15.017 253.921 15.9893H254.045V14.7926ZM254.293 22.4968C254.293 19.5547 252.345 17.4105 249.863 17.4105C247.356 17.4105 245.247 19.5547 245.247 22.4968C245.247 25.4015 247.356 27.5083 249.863 27.5083C252.345 27.5208 254.293 25.4015 254.293 22.4968Z" fill="#3686F7"/>
<path d="M221.994 22.4348C221.994 27.2343 218.271 30.7623 213.705 30.7623C209.139 30.7623 205.416 27.2219 205.416 22.4348C205.416 17.6103 209.139 14.0947 213.705 14.0947C218.271 14.0947 221.994 17.6103 221.994 22.4348ZM218.37 22.4348C218.37 19.4428 216.211 17.3859 213.705 17.3859C211.198 17.3859 209.039 19.4428 209.039 22.4348C209.039 25.4018 211.198 27.4837 213.705 27.4837C216.211 27.4837 218.37 25.4018 218.37 22.4348Z" fill="#FF302F"/>
<path d="M240.097 22.4721C240.097 27.2717 236.375 30.7997 231.808 30.7997C227.242 30.7997 223.52 27.2717 223.52 22.4721C223.52 17.6476 227.242 14.1445 231.808 14.1445C236.375 14.1445 240.097 17.6351 240.097 22.4721ZM236.462 22.4721C236.462 19.4802 234.302 17.4232 231.796 17.4232C229.289 17.4232 227.13 19.4802 227.13 22.4721C227.13 25.4391 229.289 27.521 231.796 27.521C234.315 27.521 236.462 25.4267 236.462 22.4721Z" fill="#FFBA40"/>
<path d="M191.792 27.1468C186.592 27.1468 182.522 22.9332 182.522 17.7097C182.522 12.4863 186.592 8.27266 191.792 8.27266C194.596 8.27266 196.643 9.38217 198.157 10.8033L200.651 8.29759C198.542 6.26556 195.725 4.71973 191.792 4.71973C184.669 4.71973 178.676 10.554 178.676 17.7097C178.676 24.8655 184.669 30.6998 191.792 30.6998C195.638 30.6998 198.542 29.4282 200.812 27.0596C203.145 24.7159 203.865 21.4247 203.865 18.7569C203.865 17.9217 203.766 17.0615 203.654 16.4257H191.792V19.8914H200.242C199.993 22.0605 199.311 23.544 198.306 24.5538C197.09 25.788 195.167 27.1468 191.792 27.1468Z" fill="#3686F7"/>
<path d="M190.762 58.78H188.202V63H186.362V58.78H179.622V57.94L186.862 48.8H188.202V57.22H190.762V58.78ZM186.362 53.16L186.542 51.56H186.482L185.742 52.86L182.782 56.44L181.722 57.38L183.222 57.22H186.362V53.16ZM192.157 61.98C192.157 61.5933 192.277 61.2867 192.517 61.06C192.771 60.8333 193.097 60.72 193.497 60.72C193.897 60.72 194.217 60.8333 194.457 61.06C194.711 61.2867 194.837 61.5933 194.837 61.98C194.837 62.34 194.711 62.64 194.457 62.88C194.217 63.12 193.897 63.24 193.497 63.24C193.097 63.24 192.771 63.12 192.517 62.88C192.277 62.64 192.157 62.34 192.157 61.98ZM196.943 53.26C196.943 52.6333 197.043 52.0467 197.243 51.5C197.456 50.94 197.763 50.46 198.163 50.06C198.563 49.6467 199.063 49.3267 199.663 49.1C200.263 48.86 200.956 48.74 201.743 48.74C202.489 48.74 203.156 48.86 203.743 49.1C204.343 49.34 204.849 49.68 205.263 50.12C205.676 50.56 205.989 51.0933 206.203 51.72C206.429 52.3467 206.543 53.0533 206.543 53.84C206.543 55.3467 206.349 56.6667 205.963 57.8C205.589 58.9333 205.063 59.8933 204.383 60.68C203.716 61.4533 202.929 62.0533 202.023 62.48C201.129 62.9067 200.163 63.1667 199.123 63.26L198.723 61.76C199.563 61.6667 200.316 61.4667 200.983 61.16C201.649 60.84 202.223 60.44 202.703 59.96C203.183 59.4667 203.576 58.9133 203.883 58.3C204.189 57.6733 204.403 57 204.523 56.28C204.323 56.4933 204.116 56.6733 203.903 56.82C203.703 56.9667 203.476 57.0867 203.223 57.18C202.983 57.26 202.709 57.32 202.403 57.36C202.109 57.3867 201.769 57.4 201.383 57.4C200.796 57.4 200.229 57.3067 199.683 57.12C199.149 56.9333 198.676 56.6667 198.263 56.32C197.863 55.9733 197.543 55.5467 197.303 55.04C197.063 54.52 196.943 53.9267 196.943 53.26ZM198.863 53.12C198.863 54.0133 199.136 54.6933 199.683 55.16C200.229 55.6133 200.936 55.84 201.803 55.84C202.509 55.84 203.103 55.7267 203.583 55.5C204.076 55.2733 204.436 55 204.663 54.68C204.689 54.52 204.703 54.38 204.703 54.26C204.703 54.14 204.703 54.0067 204.703 53.86C204.703 53.42 204.643 52.9867 204.523 52.56C204.403 52.1333 204.216 51.7533 203.963 51.42C203.723 51.0867 203.409 50.82 203.023 50.62C202.636 50.4067 202.176 50.3 201.643 50.3C200.763 50.3 200.076 50.5533 199.583 51.06C199.103 51.5533 198.863 52.24 198.863 53.12Z" fill="white"/>
<path d="M221.993 55.3615L219.879 57.2065L220.512 59.9533C220.545 60.0969 220.536 60.2472 220.484 60.3854C220.433 60.5236 220.342 60.6436 220.223 60.7303C220.103 60.8171 219.961 60.8667 219.814 60.8731C219.667 60.8795 219.521 60.8423 219.394 60.7662L216.999 59.313L214.608 60.7662C214.482 60.8423 214.336 60.8795 214.188 60.8731C214.041 60.8667 213.899 60.8171 213.78 60.7303C213.66 60.6436 213.569 60.5236 213.518 60.3854C213.466 60.2472 213.457 60.0969 213.49 59.9533L214.123 57.2093L212.008 55.3615C211.896 55.265 211.816 55.1377 211.776 54.9954C211.736 54.8532 211.739 54.7024 211.785 54.5619C211.83 54.4215 211.916 54.2976 212.032 54.2058C212.148 54.1141 212.288 54.0585 212.435 54.0462L215.222 53.8047L216.31 51.2098C216.367 51.0736 216.463 50.9573 216.586 50.8755C216.709 50.7937 216.853 50.75 217 50.75C217.148 50.75 217.292 50.7937 217.415 50.8755C217.538 50.9573 217.634 51.0736 217.69 51.2098L218.782 53.8047L221.568 54.0462C221.715 54.0585 221.855 54.1141 221.971 54.2058C222.087 54.2976 222.173 54.4215 222.218 54.5619C222.264 54.7024 222.267 54.8532 222.227 54.9954C222.188 55.1377 222.107 55.265 221.995 55.3615H221.993Z" fill="#FDAD00"/>
<path d="M235.993 55.3615L233.879 57.2065L234.512 59.9533C234.545 60.0969 234.536 60.2472 234.484 60.3854C234.433 60.5236 234.342 60.6436 234.223 60.7303C234.103 60.8171 233.961 60.8667 233.814 60.8731C233.667 60.8795 233.521 60.8423 233.394 60.7662L230.999 59.313L228.608 60.7662C228.482 60.8423 228.336 60.8795 228.188 60.8731C228.041 60.8667 227.899 60.8171 227.78 60.7303C227.66 60.6436 227.569 60.5236 227.518 60.3854C227.466 60.2472 227.457 60.0969 227.49 59.9533L228.123 57.2093L226.008 55.3615C225.896 55.265 225.816 55.1377 225.776 54.9954C225.736 54.8532 225.739 54.7024 225.785 54.5619C225.83 54.4215 225.916 54.2976 226.032 54.2058C226.148 54.1141 226.288 54.0585 226.435 54.0462L229.222 53.8047L230.31 51.2098C230.367 51.0736 230.463 50.9573 230.586 50.8755C230.709 50.7937 230.853 50.75 231 50.75C231.148 50.75 231.292 50.7937 231.415 50.8755C231.538 50.9573 231.634 51.0736 231.69 51.2098L232.782 53.8047L235.568 54.0462C235.715 54.0585 235.855 54.1141 235.971 54.2058C236.087 54.2976 236.173 54.4215 236.218 54.5619C236.264 54.7024 236.267 54.8532 236.227 54.9954C236.188 55.1377 236.107 55.265 235.995 55.3615H235.993Z" fill="#FDAD00"/>
<path d="M249.993 55.3615L247.879 57.2065L248.512 59.9533C248.545 60.0969 248.536 60.2472 248.484 60.3854C248.433 60.5236 248.342 60.6436 248.223 60.7303C248.103 60.8171 247.961 60.8667 247.814 60.8731C247.667 60.8795 247.521 60.8423 247.394 60.7662L244.999 59.313L242.608 60.7662C242.482 60.8423 242.336 60.8795 242.188 60.8731C242.041 60.8667 241.899 60.8171 241.78 60.7303C241.66 60.6436 241.569 60.5236 241.518 60.3854C241.466 60.2472 241.457 60.0969 241.49 59.9533L242.123 57.2093L240.008 55.3615C239.896 55.265 239.816 55.1377 239.776 54.9954C239.736 54.8532 239.739 54.7024 239.785 54.5619C239.83 54.4215 239.916 54.2976 240.032 54.2058C240.148 54.1141 240.288 54.0585 240.435 54.0462L243.222 53.8047L244.31 51.2098C244.367 51.0736 244.463 50.9573 244.586 50.8755C244.709 50.7937 244.853 50.75 245 50.75C245.148 50.75 245.292 50.7937 245.415 50.8755C245.538 50.9573 245.634 51.0736 245.69 51.2098L246.782 53.8047L249.568 54.0462C249.715 54.0585 249.855 54.1141 249.971 54.2058C250.087 54.2976 250.173 54.4215 250.218 54.5619C250.264 54.7024 250.267 54.8532 250.227 54.9954C250.188 55.1377 250.107 55.265 249.995 55.3615H249.993Z" fill="#FDAD00"/>
<path d="M263.993 55.3615L261.879 57.2065L262.512 59.9533C262.545 60.0969 262.536 60.2472 262.484 60.3854C262.433 60.5236 262.342 60.6436 262.223 60.7303C262.103 60.8171 261.961 60.8667 261.814 60.8731C261.667 60.8795 261.521 60.8423 261.394 60.7662L258.999 59.313L256.608 60.7662C256.482 60.8423 256.336 60.8795 256.188 60.8731C256.041 60.8667 255.899 60.8171 255.78 60.7303C255.66 60.6436 255.569 60.5236 255.518 60.3854C255.466 60.2472 255.457 60.0969 255.49 59.9533L256.123 57.2093L254.008 55.3615C253.896 55.265 253.816 55.1377 253.776 54.9954C253.736 54.8532 253.739 54.7024 253.785 54.5619C253.83 54.4215 253.916 54.2976 254.032 54.2058C254.148 54.1141 254.288 54.0585 254.435 54.0462L257.222 53.8047L258.31 51.2098C258.367 51.0736 258.463 50.9573 258.586 50.8755C258.709 50.7937 258.853 50.75 259 50.75C259.148 50.75 259.292 50.7937 259.415 50.8755C259.538 50.9573 259.634 51.0736 259.69 51.2098L260.782 53.8047L263.568 54.0462C263.715 54.0585 263.855 54.1141 263.971 54.2058C264.087 54.2976 264.173 54.4215 264.218 54.5619C264.264 54.7024 264.267 54.8532 264.227 54.9954C264.188 55.1377 264.107 55.265 263.995 55.3615H263.993Z" fill="#FDAD00"/>
<path d="M277.993 55.3615L275.879 57.2065L276.512 59.9533C276.545 60.0969 276.536 60.2472 276.484 60.3854C276.433 60.5236 276.342 60.6436 276.223 60.7303C276.103 60.8171 275.961 60.8667 275.814 60.8731C275.667 60.8795 275.521 60.8423 275.394 60.7662L272.999 59.313L270.608 60.7662C270.482 60.8423 270.336 60.8795 270.188 60.8731C270.041 60.8667 269.899 60.8171 269.78 60.7303C269.66 60.6436 269.569 60.5236 269.518 60.3854C269.466 60.2472 269.457 60.0969 269.49 59.9533L270.123 57.2093L268.008 55.3615C267.896 55.265 267.816 55.1377 267.776 54.9954C267.736 54.8532 267.739 54.7024 267.785 54.5619C267.83 54.4215 267.916 54.2976 268.032 54.2058C268.148 54.1141 268.288 54.0585 268.435 54.0462L271.222 53.8047L272.31 51.2098C272.367 51.0736 272.463 50.9573 272.586 50.8755C272.709 50.7937 272.853 50.75 273 50.75C273.148 50.75 273.292 50.7937 273.415 50.8755C273.538 50.9573 273.634 51.0736 273.69 51.2098L274.782 53.8047L277.568 54.0462C277.715 54.0585 277.855 54.1141 277.971 54.2058C278.087 54.2976 278.173 54.4215 278.218 54.5619C278.264 54.7024 278.267 54.8532 278.227 54.9954C278.188 55.1377 278.107 55.265 277.995 55.3615H277.993Z" fill="#FDAD00"/>
<path d="M453.335 25.2147L456.164 27.1096C455.245 28.4685 453.049 30.7997 449.252 30.7997C444.537 30.7997 441.025 27.1346 441.025 22.4721C441.025 17.5105 444.574 14.1445 448.855 14.1445C453.161 14.1445 455.27 17.5853 455.953 19.4428L456.325 20.3902L445.232 25.0028C446.076 26.6733 447.391 27.521 449.252 27.521C451.113 27.521 452.404 26.5985 453.335 25.2147ZM444.636 22.2103L452.044 19.1186C451.635 18.0839 450.419 17.3484 448.967 17.3484C447.118 17.3484 444.549 18.994 444.636 22.2103Z" fill="#FF302F"/>
<path d="M435.678 5.6543H439.251V30.0386H435.678V5.6543Z" fill="#20B15A"/>
<path d="M430.045 14.7926H433.494V29.6027C433.494 35.7486 429.883 38.2793 425.615 38.2793C421.594 38.2793 419.175 35.5616 418.269 33.3551L421.433 32.0336C422.004 33.3925 423.381 35.0006 425.615 35.0006C428.357 35.0006 430.045 33.2927 430.045 30.1013V28.9046H429.921C429.102 29.9019 427.538 30.7995 425.553 30.7995C421.408 30.7995 417.611 27.1717 417.611 22.4968C417.611 17.797 421.408 14.1318 425.553 14.1318C427.526 14.1318 429.102 15.017 429.921 15.9893H430.045V14.7926ZM430.293 22.4968C430.293 19.5547 428.345 17.4105 425.863 17.4105C423.356 17.4105 421.247 19.5547 421.247 22.4968C421.247 25.4015 423.356 27.5083 425.863 27.5083C428.345 27.5208 430.293 25.4015 430.293 22.4968Z" fill="#3686F7"/>
<path d="M397.994 22.4348C397.994 27.2343 394.271 30.7623 389.705 30.7623C385.139 30.7623 381.416 27.2219 381.416 22.4348C381.416 17.6103 385.139 14.0947 389.705 14.0947C394.271 14.0947 397.994 17.6103 397.994 22.4348ZM394.37 22.4348C394.37 19.4428 392.211 17.3859 389.705 17.3859C387.198 17.3859 385.039 19.4428 385.039 22.4348C385.039 25.4018 387.198 27.4837 389.705 27.4837C392.211 27.4837 394.37 25.4018 394.37 22.4348Z" fill="#FF302F"/>
<path d="M416.097 22.4721C416.097 27.2717 412.375 30.7997 407.808 30.7997C403.242 30.7997 399.52 27.2717 399.52 22.4721C399.52 17.6476 403.242 14.1445 407.808 14.1445C412.375 14.1445 416.097 17.6351 416.097 22.4721ZM412.462 22.4721C412.462 19.4802 410.302 17.4232 407.796 17.4232C405.289 17.4232 403.13 19.4802 403.13 22.4721C403.13 25.4391 405.289 27.521 407.796 27.521C410.315 27.521 412.462 25.4267 412.462 22.4721Z" fill="#FFBA40"/>
<path d="M367.792 27.1468C362.592 27.1468 358.522 22.9332 358.522 17.7097C358.522 12.4863 362.592 8.27266 367.792 8.27266C370.596 8.27266 372.643 9.38217 374.157 10.8033L376.651 8.29759C374.542 6.26556 371.725 4.71973 367.792 4.71973C360.669 4.71973 354.676 10.554 354.676 17.7097C354.676 24.8655 360.669 30.6998 367.792 30.6998C371.638 30.6998 374.542 29.4282 376.812 27.0596C379.145 24.7159 379.865 21.4247 379.865 18.7569C379.865 17.9217 379.766 17.0615 379.654 16.4257H367.792V19.8914H376.242C375.993 22.0605 375.311 23.544 374.306 24.5538C373.09 25.788 371.167 27.1468 367.792 27.1468Z" fill="#3686F7"/>
<path d="M366.762 58.78H364.202V63H362.362V58.78H355.622V57.94L362.862 48.8H364.202V57.22H366.762V58.78ZM362.362 53.16L362.542 51.56H362.482L361.742 52.86L358.782 56.44L357.722 57.38L359.222 57.22H362.362V53.16ZM368.157 61.98C368.157 61.5933 368.277 61.2867 368.517 61.06C368.771 60.8333 369.097 60.72 369.497 60.72C369.897 60.72 370.217 60.8333 370.457 61.06C370.711 61.2867 370.837 61.5933 370.837 61.98C370.837 62.34 370.711 62.64 370.457 62.88C370.217 63.12 369.897 63.24 369.497 63.24C369.097 63.24 368.771 63.12 368.517 62.88C368.277 62.64 368.157 62.34 368.157 61.98ZM372.943 53.26C372.943 52.6333 373.043 52.0467 373.243 51.5C373.456 50.94 373.763 50.46 374.163 50.06C374.563 49.6467 375.063 49.3267 375.663 49.1C376.263 48.86 376.956 48.74 377.743 48.74C378.489 48.74 379.156 48.86 379.743 49.1C380.343 49.34 380.849 49.68 381.263 50.12C381.676 50.56 381.989 51.0933 382.203 51.72C382.429 52.3467 382.543 53.0533 382.543 53.84C382.543 55.3467 382.349 56.6667 381.963 57.8C381.589 58.9333 381.063 59.8933 380.383 60.68C379.716 61.4533 378.929 62.0533 378.023 62.48C377.129 62.9067 376.163 63.1667 375.123 63.26L374.723 61.76C375.563 61.6667 376.316 61.4667 376.983 61.16C377.649 60.84 378.223 60.44 378.703 59.96C379.183 59.4667 379.576 58.9133 379.883 58.3C380.189 57.6733 380.403 57 380.523 56.28C380.323 56.4933 380.116 56.6733 379.903 56.82C379.703 56.9667 379.476 57.0867 379.223 57.18C378.983 57.26 378.709 57.32 378.403 57.36C378.109 57.3867 377.769 57.4 377.383 57.4C376.796 57.4 376.229 57.3067 375.683 57.12C375.149 56.9333 374.676 56.6667 374.263 56.32C373.863 55.9733 373.543 55.5467 373.303 55.04C373.063 54.52 372.943 53.9267 372.943 53.26ZM374.863 53.12C374.863 54.0133 375.136 54.6933 375.683 55.16C376.229 55.6133 376.936 55.84 377.803 55.84C378.509 55.84 379.103 55.7267 379.583 55.5C380.076 55.2733 380.436 55 380.663 54.68C380.689 54.52 380.703 54.38 380.703 54.26C380.703 54.14 380.703 54.0067 380.703 53.86C380.703 53.42 380.643 52.9867 380.523 52.56C380.403 52.1333 380.216 51.7533 379.963 51.42C379.723 51.0867 379.409 50.82 379.023 50.62C378.636 50.4067 378.176 50.3 377.643 50.3C376.763 50.3 376.076 50.5533 375.583 51.06C375.103 51.5533 374.863 52.24 374.863 53.12Z" fill="white"/>
<path d="M397.993 55.3615L395.879 57.2065L396.512 59.9533C396.545 60.0969 396.536 60.2472 396.484 60.3854C396.433 60.5236 396.342 60.6436 396.223 60.7303C396.103 60.8171 395.961 60.8667 395.814 60.8731C395.667 60.8795 395.521 60.8423 395.394 60.7662L392.999 59.313L390.608 60.7662C390.482 60.8423 390.336 60.8795 390.188 60.8731C390.041 60.8667 389.899 60.8171 389.78 60.7303C389.66 60.6436 389.569 60.5236 389.518 60.3854C389.466 60.2472 389.457 60.0969 389.49 59.9533L390.123 57.2093L388.008 55.3615C387.896 55.265 387.816 55.1377 387.776 54.9954C387.736 54.8532 387.739 54.7024 387.785 54.5619C387.83 54.4215 387.916 54.2976 388.032 54.2058C388.148 54.1141 388.288 54.0585 388.435 54.0462L391.222 53.8047L392.31 51.2098C392.367 51.0736 392.463 50.9573 392.586 50.8755C392.709 50.7937 392.853 50.75 393 50.75C393.148 50.75 393.292 50.7937 393.415 50.8755C393.538 50.9573 393.634 51.0736 393.69 51.2098L394.782 53.8047L397.568 54.0462C397.715 54.0585 397.855 54.1141 397.971 54.2058C398.087 54.2976 398.173 54.4215 398.218 54.5619C398.264 54.7024 398.267 54.8532 398.227 54.9954C398.188 55.1377 398.107 55.265 397.995 55.3615H397.993Z" fill="#FDAD00"/>
<path d="M411.993 55.3615L409.879 57.2065L410.512 59.9533C410.545 60.0969 410.536 60.2472 410.484 60.3854C410.433 60.5236 410.342 60.6436 410.223 60.7303C410.103 60.8171 409.961 60.8667 409.814 60.8731C409.667 60.8795 409.521 60.8423 409.394 60.7662L406.999 59.313L404.608 60.7662C404.482 60.8423 404.336 60.8795 404.188 60.8731C404.041 60.8667 403.899 60.8171 403.78 60.7303C403.66 60.6436 403.569 60.5236 403.518 60.3854C403.466 60.2472 403.457 60.0969 403.49 59.9533L404.123 57.2093L402.008 55.3615C401.896 55.265 401.816 55.1377 401.776 54.9954C401.736 54.8532 401.739 54.7024 401.785 54.5619C401.83 54.4215 401.916 54.2976 402.032 54.2058C402.148 54.1141 402.288 54.0585 402.435 54.0462L405.222 53.8047L406.31 51.2098C406.367 51.0736 406.463 50.9573 406.586 50.8755C406.709 50.7937 406.853 50.75 407 50.75C407.148 50.75 407.292 50.7937 407.415 50.8755C407.538 50.9573 407.634 51.0736 407.69 51.2098L408.782 53.8047L411.568 54.0462C411.715 54.0585 411.855 54.1141 411.971 54.2058C412.087 54.2976 412.173 54.4215 412.218 54.5619C412.264 54.7024 412.267 54.8532 412.227 54.9954C412.188 55.1377 412.107 55.265 411.995 55.3615H411.993Z" fill="#FDAD00"/>
<path d="M425.993 55.3615L423.879 57.2065L424.512 59.9533C424.545 60.0969 424.536 60.2472 424.484 60.3854C424.433 60.5236 424.342 60.6436 424.223 60.7303C424.103 60.8171 423.961 60.8667 423.814 60.8731C423.667 60.8795 423.521 60.8423 423.394 60.7662L420.999 59.313L418.608 60.7662C418.482 60.8423 418.336 60.8795 418.188 60.8731C418.041 60.8667 417.899 60.8171 417.78 60.7303C417.66 60.6436 417.569 60.5236 417.518 60.3854C417.466 60.2472 417.457 60.0969 417.49 59.9533L418.123 57.2093L416.008 55.3615C415.896 55.265 415.816 55.1377 415.776 54.9954C415.736 54.8532 415.739 54.7024 415.785 54.5619C415.83 54.4215 415.916 54.2976 416.032 54.2058C416.148 54.1141 416.288 54.0585 416.435 54.0462L419.222 53.8047L420.31 51.2098C420.367 51.0736 420.463 50.9573 420.586 50.8755C420.709 50.7937 420.853 50.75 421 50.75C421.148 50.75 421.292 50.7937 421.415 50.8755C421.538 50.9573 421.634 51.0736 421.69 51.2098L422.782 53.8047L425.568 54.0462C425.715 54.0585 425.855 54.1141 425.971 54.2058C426.087 54.2976 426.173 54.4215 426.218 54.5619C426.264 54.7024 426.267 54.8532 426.227 54.9954C426.188 55.1377 426.107 55.265 425.995 55.3615H425.993Z" fill="#FDAD00"/>
<path d="M439.993 55.3615L437.879 57.2065L438.512 59.9533C438.545 60.0969 438.536 60.2472 438.484 60.3854C438.433 60.5236 438.342 60.6436 438.223 60.7303C438.103 60.8171 437.961 60.8667 437.814 60.8731C437.667 60.8795 437.521 60.8423 437.394 60.7662L434.999 59.313L432.608 60.7662C432.482 60.8423 432.336 60.8795 432.188 60.8731C432.041 60.8667 431.899 60.8171 431.78 60.7303C431.66 60.6436 431.569 60.5236 431.518 60.3854C431.466 60.2472 431.457 60.0969 431.49 59.9533L432.123 57.2093L430.008 55.3615C429.896 55.265 429.816 55.1377 429.776 54.9954C429.736 54.8532 429.739 54.7024 429.785 54.5619C429.83 54.4215 429.916 54.2976 430.032 54.2058C430.148 54.1141 430.288 54.0585 430.435 54.0462L433.222 53.8047L434.31 51.2098C434.367 51.0736 434.463 50.9573 434.586 50.8755C434.709 50.7937 434.853 50.75 435 50.75C435.148 50.75 435.292 50.7937 435.415 50.8755C435.538 50.9573 435.634 51.0736 435.69 51.2098L436.782 53.8047L439.568 54.0462C439.715 54.0585 439.855 54.1141 439.971 54.2058C440.087 54.2976 440.173 54.4215 440.218 54.5619C440.264 54.7024 440.267 54.8532 440.227 54.9954C440.188 55.1377 440.107 55.265 439.995 55.3615H439.993Z" fill="#FDAD00"/>
<path d="M453.993 55.3615L451.879 57.2065L452.512 59.9533C452.545 60.0969 452.536 60.2472 452.484 60.3854C452.433 60.5236 452.342 60.6436 452.223 60.7303C452.103 60.8171 451.961 60.8667 451.814 60.8731C451.667 60.8795 451.521 60.8423 451.394 60.7662L448.999 59.313L446.608 60.7662C446.482 60.8423 446.336 60.8795 446.188 60.8731C446.041 60.8667 445.899 60.8171 445.78 60.7303C445.66 60.6436 445.569 60.5236 445.518 60.3854C445.466 60.2472 445.457 60.0969 445.49 59.9533L446.123 57.2093L444.008 55.3615C443.896 55.265 443.816 55.1377 443.776 54.9954C443.736 54.8532 443.739 54.7024 443.785 54.5619C443.83 54.4215 443.916 54.2976 444.032 54.2058C444.148 54.1141 444.288 54.0585 444.435 54.0462L447.222 53.8047L448.31 51.2098C448.367 51.0736 448.463 50.9573 448.586 50.8755C448.709 50.7937 448.853 50.75 449 50.75C449.148 50.75 449.292 50.7937 449.415 50.8755C449.538 50.9573 449.634 51.0736 449.69 51.2098L450.782 53.8047L453.568 54.0462C453.715 54.0585 453.855 54.1141 453.971 54.2058C454.087 54.2976 454.173 54.4215 454.218 54.5619C454.264 54.7024 454.267 54.8532 454.227 54.9954C454.188 55.1377 454.107 55.265 453.995 55.3615H453.993Z" fill="#FDAD00"/>
<path d="M101.335 25.2147L104.164 27.1096C103.245 28.4685 101.049 30.7997 97.2522 30.7997C92.537 30.7997 89.0254 27.1346 89.0254 22.4721C89.0254 17.5105 92.5742 14.1445 96.8551 14.1445C101.161 14.1445 103.27 17.5853 103.953 19.4428L104.325 20.3902L93.2319 25.0028C94.0756 26.6733 95.3909 27.521 97.2522 27.521C99.1135 27.521 100.404 26.5985 101.335 25.2147ZM92.6363 22.2103L100.044 19.1186C99.6346 18.0839 98.4186 17.3484 96.9668 17.3484C95.1179 17.3484 92.5494 18.994 92.6363 22.2103Z" fill="#FF302F"/>
<path d="M83.6777 5.6543H87.2514V30.0386H83.6777V5.6543Z" fill="#20B15A"/>
<path d="M78.0446 14.7926H81.4941V29.6027C81.4941 35.7486 77.8833 38.2793 73.6148 38.2793C69.5944 38.2793 67.1748 35.5616 66.269 33.3551L69.4331 32.0336C70.0039 33.3925 71.3813 35.0006 73.6148 35.0006C76.357 35.0006 78.0446 33.2927 78.0446 30.1013V28.9046H77.9205C77.1016 29.9019 75.5381 30.7995 73.5527 30.7995C69.4083 30.7995 65.6113 27.1717 65.6113 22.4968C65.6113 17.797 69.4083 14.1318 73.5527 14.1318C75.5257 14.1318 77.1016 15.017 77.9205 15.9893H78.0446V14.7926ZM78.2928 22.4968C78.2928 19.5547 76.3446 17.4105 73.8629 17.4105C71.3564 17.4105 69.247 19.5547 69.247 22.4968C69.247 25.4015 71.3564 27.5083 73.8629 27.5083C76.3446 27.5208 78.2928 25.4015 78.2928 22.4968Z" fill="#3686F7"/>
<path d="M45.9937 22.4348C45.9937 27.2343 42.2712 30.7623 37.7049 30.7623C33.1386 30.7623 29.416 27.2219 29.416 22.4348C29.416 17.6103 33.1386 14.0947 37.7049 14.0947C42.2712 14.0947 45.9937 17.6103 45.9937 22.4348ZM42.3704 22.4348C42.3704 19.4428 40.2114 17.3859 37.7049 17.3859C35.1984 17.3859 33.0393 19.4428 33.0393 22.4348C33.0393 25.4018 35.1984 27.4837 37.7049 27.4837C40.2114 27.4837 42.3704 25.4018 42.3704 22.4348Z" fill="#FF302F"/>
<path d="M64.0972 22.4721C64.0972 27.2717 60.3747 30.7997 55.8084 30.7997C51.2421 30.7997 47.5195 27.2717 47.5195 22.4721C47.5195 17.6476 51.2421 14.1445 55.8084 14.1445C60.3747 14.1445 64.0972 17.6351 64.0972 22.4721ZM60.4615 22.4721C60.4615 19.4802 58.3025 17.4232 55.796 17.4232C53.2895 17.4232 51.1304 19.4802 51.1304 22.4721C51.1304 25.4391 53.2895 27.521 55.796 27.521C58.3149 27.521 60.4615 25.4267 60.4615 22.4721Z" fill="#FFBA40"/>
<path d="M15.7915 27.1468C10.5924 27.1468 6.5224 22.9332 6.5224 17.7097C6.5224 12.4863 10.5924 8.27266 15.7915 8.27266C18.5958 8.27266 20.6432 9.38217 22.157 10.8033L24.6511 8.29759C22.5417 6.26556 19.725 4.71973 15.7915 4.71973C8.66906 4.71973 2.67578 10.554 2.67578 17.7097C2.67578 24.8655 8.66906 30.6998 15.7915 30.6998C19.6381 30.6998 22.5417 29.4282 24.8125 27.0596C27.1452 24.7159 27.8649 21.4247 27.8649 18.7569C27.8649 17.9217 27.7657 17.0615 27.654 16.4257H15.7915V19.8914H24.2417C23.9935 22.0605 23.311 23.544 22.3059 24.5538C21.0899 25.788 19.1666 27.1468 15.7915 27.1468Z" fill="#3686F7"/>
<path d="M14.7622 58.78H12.2022V63H10.3622V58.78H3.62219V57.94L10.8622 48.8H12.2022V57.22H14.7622V58.78ZM10.3622 53.16L10.5422 51.56H10.4822L9.74219 52.86L6.78219 56.44L5.72219 57.38L7.22219 57.22H10.3622V53.16ZM16.1572 61.98C16.1572 61.5933 16.2772 61.2867 16.5172 61.06C16.7705 60.8333 17.0972 60.72 17.4972 60.72C17.8972 60.72 18.2172 60.8333 18.4572 61.06C18.7105 61.2867 18.8372 61.5933 18.8372 61.98C18.8372 62.34 18.7105 62.64 18.4572 62.88C18.2172 63.12 17.8972 63.24 17.4972 63.24C17.0972 63.24 16.7705 63.12 16.5172 62.88C16.2772 62.64 16.1572 62.34 16.1572 61.98ZM20.9428 53.26C20.9428 52.6333 21.0428 52.0467 21.2428 51.5C21.4561 50.94 21.7628 50.46 22.1628 50.06C22.5628 49.6467 23.0628 49.3267 23.6628 49.1C24.2628 48.86 24.9561 48.74 25.7428 48.74C26.4895 48.74 27.1561 48.86 27.7428 49.1C28.3428 49.34 28.8495 49.68 29.2628 50.12C29.6761 50.56 29.9895 51.0933 30.2028 51.72C30.4295 52.3467 30.5428 53.0533 30.5428 53.84C30.5428 55.3467 30.3495 56.6667 29.9628 57.8C29.5895 58.9333 29.0628 59.8933 28.3828 60.68C27.7161 61.4533 26.9295 62.0533 26.0228 62.48C25.1295 62.9067 24.1628 63.1667 23.1228 63.26L22.7228 61.76C23.5628 61.6667 24.3161 61.4667 24.9828 61.16C25.6495 60.84 26.2228 60.44 26.7028 59.96C27.1828 59.4667 27.5761 58.9133 27.8828 58.3C28.1895 57.6733 28.4028 57 28.5228 56.28C28.3228 56.4933 28.1161 56.6733 27.9028 56.82C27.7028 56.9667 27.4761 57.0867 27.2228 57.18C26.9828 57.26 26.7095 57.32 26.4028 57.36C26.1095 57.3867 25.7695 57.4 25.3828 57.4C24.7961 57.4 24.2295 57.3067 23.6828 57.12C23.1495 56.9333 22.6761 56.6667 22.2628 56.32C21.8628 55.9733 21.5428 55.5467 21.3028 55.04C21.0628 54.52 20.9428 53.9267 20.9428 53.26ZM22.8628 53.12C22.8628 54.0133 23.1361 54.6933 23.6828 55.16C24.2295 55.6133 24.9361 55.84 25.8028 55.84C26.5095 55.84 27.1028 55.7267 27.5828 55.5C28.0761 55.2733 28.4361 55 28.6628 54.68C28.6895 54.52 28.7028 54.38 28.7028 54.26C28.7028 54.14 28.7028 54.0067 28.7028 53.86C28.7028 53.42 28.6428 52.9867 28.5228 52.56C28.4028 52.1333 28.2161 51.7533 27.9628 51.42C27.7228 51.0867 27.4095 50.82 27.0228 50.62C26.6361 50.4067 26.1761 50.3 25.6428 50.3C24.7628 50.3 24.0761 50.5533 23.5828 51.06C23.1028 51.5533 22.8628 52.24 22.8628 53.12Z" fill="white"/>
<path d="M45.9926 55.3615L43.8785 57.2065L44.5118 59.9533C44.5453 60.0969 44.5358 60.2472 44.4843 60.3854C44.4329 60.5236 44.3418 60.6436 44.2226 60.7303C44.1033 60.8171 43.9612 60.8667 43.8139 60.8731C43.6665 60.8795 43.5206 60.8423 43.3943 60.7662L40.9985 59.313L38.6079 60.7662C38.4816 60.8423 38.3357 60.8795 38.1884 60.8731C38.041 60.8667 37.8989 60.8171 37.7796 60.7303C37.6604 60.6436 37.5693 60.5236 37.5179 60.3854C37.4665 60.2472 37.4569 60.0969 37.4904 59.9533L38.1227 57.2093L36.0082 55.3615C35.8964 55.265 35.8155 55.1377 35.7757 54.9954C35.736 54.8532 35.7391 54.7024 35.7847 54.5619C35.8303 54.4215 35.9164 54.2976 36.0321 54.2058C36.1478 54.1141 36.2881 54.0585 36.4352 54.0462L39.2224 53.8047L40.3104 51.2098C40.3672 51.0736 40.463 50.9573 40.5858 50.8755C40.7086 50.7937 40.8529 50.75 41.0004 50.75C41.1479 50.75 41.2922 50.7937 41.415 50.8755C41.5378 50.9573 41.6336 51.0736 41.6904 51.2098L42.7817 53.8047L45.5679 54.0462C45.7151 54.0585 45.8553 54.1141 45.971 54.2058C46.0868 54.2976 46.1728 54.4215 46.2184 54.5619C46.2641 54.7024 46.2672 54.8532 46.2274 54.9954C46.1876 55.1377 46.1068 55.265 45.9949 55.3615H45.9926Z" fill="#FDAD00"/>
<path d="M59.9926 55.3615L57.8785 57.2065L58.5118 59.9533C58.5453 60.0969 58.5358 60.2472 58.4843 60.3854C58.4329 60.5236 58.3418 60.6436 58.2226 60.7303C58.1033 60.8171 57.9612 60.8667 57.8139 60.8731C57.6665 60.8795 57.5206 60.8423 57.3943 60.7662L54.9985 59.313L52.6079 60.7662C52.4816 60.8423 52.3357 60.8795 52.1884 60.8731C52.041 60.8667 51.8989 60.8171 51.7796 60.7303C51.6604 60.6436 51.5693 60.5236 51.5179 60.3854C51.4665 60.2472 51.4569 60.0969 51.4904 59.9533L52.1227 57.2093L50.0082 55.3615C49.8964 55.265 49.8155 55.1377 49.7757 54.9954C49.736 54.8532 49.7391 54.7024 49.7847 54.5619C49.8303 54.4215 49.9164 54.2976 50.0321 54.2058C50.1478 54.1141 50.2881 54.0585 50.4352 54.0462L53.2224 53.8047L54.3104 51.2098C54.3672 51.0736 54.463 50.9573 54.5858 50.8755C54.7086 50.7937 54.8529 50.75 55.0004 50.75C55.1479 50.75 55.2922 50.7937 55.415 50.8755C55.5378 50.9573 55.6336 51.0736 55.6904 51.2098L56.7817 53.8047L59.5679 54.0462C59.7151 54.0585 59.8553 54.1141 59.971 54.2058C60.0868 54.2976 60.1728 54.4215 60.2184 54.5619C60.2641 54.7024 60.2672 54.8532 60.2274 54.9954C60.1876 55.1377 60.1068 55.265 59.9949 55.3615H59.9926Z" fill="#FDAD00"/>
<path d="M73.9926 55.3615L71.8785 57.2065L72.5118 59.9533C72.5453 60.0969 72.5358 60.2472 72.4843 60.3854C72.4329 60.5236 72.3418 60.6436 72.2226 60.7303C72.1033 60.8171 71.9612 60.8667 71.8139 60.8731C71.6665 60.8795 71.5206 60.8423 71.3943 60.7662L68.9985 59.313L66.6079 60.7662C66.4816 60.8423 66.3357 60.8795 66.1884 60.8731C66.041 60.8667 65.8989 60.8171 65.7796 60.7303C65.6604 60.6436 65.5693 60.5236 65.5179 60.3854C65.4665 60.2472 65.4569 60.0969 65.4904 59.9533L66.1227 57.2093L64.0082 55.3615C63.8964 55.265 63.8155 55.1377 63.7757 54.9954C63.736 54.8532 63.7391 54.7024 63.7847 54.5619C63.8303 54.4215 63.9164 54.2976 64.0321 54.2058C64.1478 54.1141 64.2881 54.0585 64.4352 54.0462L67.2224 53.8047L68.3104 51.2098C68.3672 51.0736 68.463 50.9573 68.5858 50.8755C68.7086 50.7937 68.8529 50.75 69.0004 50.75C69.1479 50.75 69.2922 50.7937 69.415 50.8755C69.5378 50.9573 69.6336 51.0736 69.6904 51.2098L70.7817 53.8047L73.5679 54.0462C73.7151 54.0585 73.8553 54.1141 73.971 54.2058C74.0868 54.2976 74.1728 54.4215 74.2184 54.5619C74.2641 54.7024 74.2672 54.8532 74.2274 54.9954C74.1876 55.1377 74.1068 55.265 73.9949 55.3615H73.9926Z" fill="#FDAD00"/>
<path d="M87.9926 55.3615L85.8785 57.2065L86.5118 59.9533C86.5453 60.0969 86.5358 60.2472 86.4843 60.3854C86.4329 60.5236 86.3418 60.6436 86.2226 60.7303C86.1033 60.8171 85.9612 60.8667 85.8139 60.8731C85.6665 60.8795 85.5206 60.8423 85.3943 60.7662L82.9985 59.313L80.6079 60.7662C80.4816 60.8423 80.3357 60.8795 80.1884 60.8731C80.041 60.8667 79.8989 60.8171 79.7796 60.7303C79.6604 60.6436 79.5693 60.5236 79.5179 60.3854C79.4665 60.2472 79.4569 60.0969 79.4904 59.9533L80.1227 57.2093L78.0082 55.3615C77.8964 55.265 77.8155 55.1377 77.7757 54.9954C77.736 54.8532 77.7391 54.7024 77.7847 54.5619C77.8303 54.4215 77.9164 54.2976 78.0321 54.2058C78.1478 54.1141 78.2881 54.0585 78.4352 54.0462L81.2224 53.8047L82.3104 51.2098C82.3672 51.0736 82.463 50.9573 82.5858 50.8755C82.7086 50.7937 82.8529 50.75 83.0004 50.75C83.1479 50.75 83.2922 50.7937 83.415 50.8755C83.5378 50.9573 83.6336 51.0736 83.6904 51.2098L84.7817 53.8047L87.5679 54.0462C87.7151 54.0585 87.8553 54.1141 87.971 54.2058C88.0868 54.2976 88.1728 54.4215 88.2184 54.5619C88.2641 54.7024 88.2672 54.8532 88.2274 54.9954C88.1876 55.1377 88.1068 55.265 87.9949 55.3615H87.9926Z" fill="#FDAD00"/>
<path d="M101.993 55.3615L99.8785 57.2065L100.512 59.9533C100.545 60.0969 100.536 60.2472 100.484 60.3854C100.433 60.5236 100.342 60.6436 100.223 60.7303C100.103 60.8171 99.9612 60.8667 99.8139 60.8731C99.6665 60.8795 99.5206 60.8423 99.3943 60.7662L96.9985 59.313L94.6079 60.7662C94.4816 60.8423 94.3357 60.8795 94.1884 60.8731C94.041 60.8667 93.8989 60.8171 93.7796 60.7303C93.6604 60.6436 93.5693 60.5236 93.5179 60.3854C93.4665 60.2472 93.4569 60.0969 93.4904 59.9533L94.1227 57.2093L92.0082 55.3615C91.8964 55.265 91.8155 55.1377 91.7757 54.9954C91.736 54.8532 91.7391 54.7024 91.7847 54.5619C91.8303 54.4215 91.9164 54.2976 92.0321 54.2058C92.1478 54.1141 92.2881 54.0585 92.4352 54.0462L95.2224 53.8047L96.3104 51.2098C96.3672 51.0736 96.463 50.9573 96.5858 50.8755C96.7086 50.7937 96.8529 50.75 97.0004 50.75C97.1479 50.75 97.2922 50.7937 97.415 50.8755C97.5378 50.9573 97.6336 51.0736 97.6904 51.2098L98.7817 53.8047L101.568 54.0462C101.715 54.0585 101.855 54.1141 101.971 54.2058C102.087 54.2976 102.173 54.4215 102.218 54.5619C102.264 54.7024 102.267 54.8532 102.227 54.9954C102.188 55.1377 102.107 55.265 101.995 55.3615H101.993Z" fill="#FDAD00"/>
</svg>
