<svg width="142" height="26" viewBox="0 0 142 26" fill="none" xmlns="http://www.w3.org/2000/svg">
<mask id="path-1-outside-1_1020_5745" maskUnits="userSpaceOnUse" x="36" y="4" width="105" height="18" fill="black">
<rect fill="white" x="36" y="4" width="105" height="18"/>
<path d="M37.168 5.73633H45.2148C46.3867 5.73633 47.4023 5.86328 48.2617 6.11719C49.1211 6.37109 49.834 6.73893 50.4004 7.2207C50.9668 7.69596 51.3867 8.27865 51.6602 8.96875C51.9401 9.65885 52.0801 10.4368 52.0801 11.3027C52.0801 12.1165 51.9434 12.8685 51.6699 13.5586C51.3965 14.2487 50.9766 14.8477 50.4102 15.3555C49.8503 15.8568 49.1406 16.2507 48.2812 16.5371C47.4219 16.8171 46.4062 16.957 45.2344 16.957L40.2637 16.9473V21H37.168V5.73633ZM45.293 14.2715C45.8789 14.2715 46.39 14.2031 46.8262 14.0664C47.2689 13.9232 47.6367 13.7246 47.9297 13.4707C48.2292 13.2103 48.4505 12.8978 48.5938 12.5332C48.7435 12.1621 48.8184 11.752 48.8184 11.3027C48.8184 10.3978 48.5221 9.69466 47.9297 9.19336C47.3438 8.68555 46.4648 8.43164 45.293 8.43164H40.2637V14.2715H45.293ZM55.1074 9.47656H57.998V11.1367C58.6361 10.6615 59.3099 10.2513 60.0195 9.90625C60.7292 9.5612 61.4355 9.29753 62.1387 9.11523L62.9883 11.7617C61.875 11.8724 60.8952 12.123 60.0488 12.5137C59.209 12.8978 58.5254 13.4414 57.998 14.1445V21H55.1074V9.47656ZM64.4531 15.2383C64.4531 14.4115 64.6191 13.6367 64.9512 12.9141C65.2897 12.1914 65.7682 11.5599 66.3867 11.0195C67.0117 10.4792 67.7637 10.0527 68.6426 9.74023C69.528 9.42773 70.5208 9.27148 71.6211 9.27148C72.7214 9.27148 73.7109 9.42773 74.5898 9.74023C75.4753 10.0527 76.2272 10.4792 76.8457 11.0195C77.4707 11.5599 77.9492 12.1914 78.2812 12.9141C78.6198 13.6367 78.7891 14.4115 78.7891 15.2383C78.7891 16.0651 78.6198 16.8398 78.2812 17.5625C77.9492 18.2852 77.4707 18.9167 76.8457 19.457C76.2272 19.9974 75.4753 20.4238 74.5898 20.7363C73.7109 21.0488 72.7214 21.2051 71.6211 21.2051C70.5208 21.2051 69.528 21.0488 68.6426 20.7363C67.7637 20.4238 67.0117 19.9974 66.3867 19.457C65.7682 18.9167 65.2897 18.2852 64.9512 17.5625C64.6191 16.8398 64.4531 16.0651 64.4531 15.2383ZM67.4902 15.2383C67.4902 15.7005 67.5814 16.14 67.7637 16.5566C67.9525 16.9668 68.2227 17.3314 68.5742 17.6504C68.9323 17.9629 69.3652 18.2135 69.873 18.4023C70.3874 18.5846 70.9701 18.6758 71.6211 18.6758C72.2721 18.6758 72.8516 18.5846 73.3594 18.4023C73.8737 18.2135 74.3066 17.9629 74.6582 17.6504C75.0163 17.3314 75.2865 16.9668 75.4688 16.5566C75.6576 16.14 75.752 15.7005 75.752 15.2383C75.752 14.776 75.6576 14.3366 75.4688 13.9199C75.2865 13.5033 75.0163 13.1387 74.6582 12.8262C74.3066 12.5072 73.8737 12.2565 73.3594 12.0742C72.8516 11.8854 72.2721 11.791 71.6211 11.791C70.9701 11.791 70.3874 11.8854 69.873 12.0742C69.3652 12.2565 68.9323 12.5072 68.5742 12.8262C68.2227 13.1387 67.9525 13.5033 67.7637 13.9199C67.5814 14.3366 67.4902 14.776 67.4902 15.2383ZM82.0703 5.73633H90.1172C91.2891 5.73633 92.3047 5.86328 93.1641 6.11719C94.0234 6.37109 94.7363 6.73893 95.3027 7.2207C95.8691 7.69596 96.2891 8.27865 96.5625 8.96875C96.8424 9.65885 96.9824 10.4368 96.9824 11.3027C96.9824 12.1165 96.8457 12.8685 96.5723 13.5586C96.2988 14.2487 95.8789 14.8477 95.3125 15.3555C94.7526 15.8568 94.043 16.2507 93.1836 16.5371C92.3242 16.8171 91.3086 16.957 90.1367 16.957L85.166 16.9473V21H82.0703V5.73633ZM90.1953 14.2715C90.7812 14.2715 91.2923 14.2031 91.7285 14.0664C92.1712 13.9232 92.5391 13.7246 92.832 13.4707C93.1315 13.2103 93.3529 12.8978 93.4961 12.5332C93.6458 12.1621 93.7207 11.752 93.7207 11.3027C93.7207 10.3978 93.4245 9.69466 92.832 9.19336C92.2461 8.68555 91.3672 8.43164 90.1953 8.43164H85.166V14.2715H90.1953ZM99.4629 17.3672C99.4629 16.8138 99.5833 16.3092 99.8242 15.8535C100.065 15.3978 100.426 15.0072 100.908 14.6816C101.39 14.3496 101.989 14.0957 102.705 13.9199C103.428 13.7376 104.268 13.6465 105.225 13.6465C105.934 13.6465 106.68 13.6986 107.461 13.8027C108.249 13.9069 109.059 14.0664 109.893 14.2812C109.86 13.9167 109.749 13.5814 109.561 13.2754C109.372 12.9629 109.108 12.696 108.77 12.4746C108.438 12.2467 108.034 12.071 107.559 11.9473C107.09 11.8236 106.556 11.7617 105.957 11.7617C105.632 11.7617 105.273 11.7812 104.883 11.8203C104.492 11.8594 104.089 11.918 103.672 11.9961C103.255 12.0742 102.842 12.1719 102.432 12.2891C102.028 12.4062 101.65 12.5462 101.299 12.709L100.42 10.3359C100.856 10.1797 101.322 10.0365 101.816 9.90625C102.318 9.77604 102.829 9.66536 103.35 9.57422C103.87 9.47656 104.391 9.40169 104.912 9.34961C105.433 9.29753 105.938 9.27148 106.426 9.27148C108.581 9.27148 110.182 9.82161 111.23 10.9219C112.279 12.0221 112.803 13.7083 112.803 15.9805V21H109.912V19.916C109.613 20.0918 109.284 20.2578 108.926 20.4141C108.574 20.5703 108.19 20.707 107.773 20.8242C107.357 20.9414 106.908 21.0326 106.426 21.0977C105.951 21.1693 105.446 21.2051 104.912 21.2051C104.014 21.2051 103.223 21.1074 102.539 20.9121C101.862 20.7168 101.296 20.4466 100.84 20.1016C100.384 19.7565 100.039 19.3529 99.8047 18.8906C99.5768 18.4219 99.4629 17.9141 99.4629 17.3672ZM102.51 17.2695C102.51 17.4583 102.559 17.6406 102.656 17.8164C102.754 17.9857 102.91 18.1387 103.125 18.2754C103.34 18.4056 103.613 18.513 103.945 18.5977C104.284 18.6758 104.691 18.7148 105.166 18.7148C105.674 18.7148 106.165 18.6693 106.641 18.5781C107.116 18.487 107.559 18.3665 107.969 18.2168C108.379 18.0671 108.75 17.8945 109.082 17.6992C109.414 17.5039 109.691 17.3021 109.912 17.0938V16.5859C109.469 16.4622 109.03 16.3581 108.594 16.2734C108.164 16.1888 107.751 16.1237 107.354 16.0781C106.963 16.026 106.592 15.9902 106.24 15.9707C105.895 15.9512 105.592 15.9414 105.332 15.9414C104.792 15.9414 104.342 15.9772 103.984 16.0488C103.626 16.1204 103.337 16.2181 103.115 16.3418C102.894 16.459 102.738 16.599 102.646 16.7617C102.555 16.9245 102.51 17.0938 102.51 17.2695ZM118.369 11.6445H115.586V9.47656H118.369V5.89258H121.26V9.47656H124.043V11.6445H121.26V21H118.369V11.6445ZM126.611 4.80859H129.502V10.3555C130.107 10.0234 130.781 9.75977 131.523 9.56445C132.272 9.36914 133.057 9.27148 133.877 9.27148C134.827 9.27148 135.68 9.41146 136.436 9.69141C137.197 9.97135 137.842 10.375 138.369 10.9023C138.896 11.4232 139.3 12.0579 139.58 12.8066C139.867 13.5553 140.01 14.3984 140.01 15.3359V21H137.129V15.4531C137.129 14.9062 137.041 14.4082 136.865 13.959C136.689 13.5033 136.432 13.1126 136.094 12.7871C135.755 12.4616 135.342 12.2109 134.854 12.0352C134.372 11.8529 133.825 11.7617 133.213 11.7617C132.477 11.7617 131.794 11.8789 131.162 12.1133C130.531 12.3477 129.977 12.6439 129.502 13.002V21H126.611V4.80859Z"/>
</mask>
<path d="M37.168 5.73633H45.2148C46.3867 5.73633 47.4023 5.86328 48.2617 6.11719C49.1211 6.37109 49.834 6.73893 50.4004 7.2207C50.9668 7.69596 51.3867 8.27865 51.6602 8.96875C51.9401 9.65885 52.0801 10.4368 52.0801 11.3027C52.0801 12.1165 51.9434 12.8685 51.6699 13.5586C51.3965 14.2487 50.9766 14.8477 50.4102 15.3555C49.8503 15.8568 49.1406 16.2507 48.2812 16.5371C47.4219 16.8171 46.4062 16.957 45.2344 16.957L40.2637 16.9473V21H37.168V5.73633ZM45.293 14.2715C45.8789 14.2715 46.39 14.2031 46.8262 14.0664C47.2689 13.9232 47.6367 13.7246 47.9297 13.4707C48.2292 13.2103 48.4505 12.8978 48.5938 12.5332C48.7435 12.1621 48.8184 11.752 48.8184 11.3027C48.8184 10.3978 48.5221 9.69466 47.9297 9.19336C47.3438 8.68555 46.4648 8.43164 45.293 8.43164H40.2637V14.2715H45.293ZM55.1074 9.47656H57.998V11.1367C58.6361 10.6615 59.3099 10.2513 60.0195 9.90625C60.7292 9.5612 61.4355 9.29753 62.1387 9.11523L62.9883 11.7617C61.875 11.8724 60.8952 12.123 60.0488 12.5137C59.209 12.8978 58.5254 13.4414 57.998 14.1445V21H55.1074V9.47656ZM64.4531 15.2383C64.4531 14.4115 64.6191 13.6367 64.9512 12.9141C65.2897 12.1914 65.7682 11.5599 66.3867 11.0195C67.0117 10.4792 67.7637 10.0527 68.6426 9.74023C69.528 9.42773 70.5208 9.27148 71.6211 9.27148C72.7214 9.27148 73.7109 9.42773 74.5898 9.74023C75.4753 10.0527 76.2272 10.4792 76.8457 11.0195C77.4707 11.5599 77.9492 12.1914 78.2812 12.9141C78.6198 13.6367 78.7891 14.4115 78.7891 15.2383C78.7891 16.0651 78.6198 16.8398 78.2812 17.5625C77.9492 18.2852 77.4707 18.9167 76.8457 19.457C76.2272 19.9974 75.4753 20.4238 74.5898 20.7363C73.7109 21.0488 72.7214 21.2051 71.6211 21.2051C70.5208 21.2051 69.528 21.0488 68.6426 20.7363C67.7637 20.4238 67.0117 19.9974 66.3867 19.457C65.7682 18.9167 65.2897 18.2852 64.9512 17.5625C64.6191 16.8398 64.4531 16.0651 64.4531 15.2383ZM67.4902 15.2383C67.4902 15.7005 67.5814 16.14 67.7637 16.5566C67.9525 16.9668 68.2227 17.3314 68.5742 17.6504C68.9323 17.9629 69.3652 18.2135 69.873 18.4023C70.3874 18.5846 70.9701 18.6758 71.6211 18.6758C72.2721 18.6758 72.8516 18.5846 73.3594 18.4023C73.8737 18.2135 74.3066 17.9629 74.6582 17.6504C75.0163 17.3314 75.2865 16.9668 75.4688 16.5566C75.6576 16.14 75.752 15.7005 75.752 15.2383C75.752 14.776 75.6576 14.3366 75.4688 13.9199C75.2865 13.5033 75.0163 13.1387 74.6582 12.8262C74.3066 12.5072 73.8737 12.2565 73.3594 12.0742C72.8516 11.8854 72.2721 11.791 71.6211 11.791C70.9701 11.791 70.3874 11.8854 69.873 12.0742C69.3652 12.2565 68.9323 12.5072 68.5742 12.8262C68.2227 13.1387 67.9525 13.5033 67.7637 13.9199C67.5814 14.3366 67.4902 14.776 67.4902 15.2383ZM82.0703 5.73633H90.1172C91.2891 5.73633 92.3047 5.86328 93.1641 6.11719C94.0234 6.37109 94.7363 6.73893 95.3027 7.2207C95.8691 7.69596 96.2891 8.27865 96.5625 8.96875C96.8424 9.65885 96.9824 10.4368 96.9824 11.3027C96.9824 12.1165 96.8457 12.8685 96.5723 13.5586C96.2988 14.2487 95.8789 14.8477 95.3125 15.3555C94.7526 15.8568 94.043 16.2507 93.1836 16.5371C92.3242 16.8171 91.3086 16.957 90.1367 16.957L85.166 16.9473V21H82.0703V5.73633ZM90.1953 14.2715C90.7812 14.2715 91.2923 14.2031 91.7285 14.0664C92.1712 13.9232 92.5391 13.7246 92.832 13.4707C93.1315 13.2103 93.3529 12.8978 93.4961 12.5332C93.6458 12.1621 93.7207 11.752 93.7207 11.3027C93.7207 10.3978 93.4245 9.69466 92.832 9.19336C92.2461 8.68555 91.3672 8.43164 90.1953 8.43164H85.166V14.2715H90.1953ZM99.4629 17.3672C99.4629 16.8138 99.5833 16.3092 99.8242 15.8535C100.065 15.3978 100.426 15.0072 100.908 14.6816C101.39 14.3496 101.989 14.0957 102.705 13.9199C103.428 13.7376 104.268 13.6465 105.225 13.6465C105.934 13.6465 106.68 13.6986 107.461 13.8027C108.249 13.9069 109.059 14.0664 109.893 14.2812C109.86 13.9167 109.749 13.5814 109.561 13.2754C109.372 12.9629 109.108 12.696 108.77 12.4746C108.438 12.2467 108.034 12.071 107.559 11.9473C107.09 11.8236 106.556 11.7617 105.957 11.7617C105.632 11.7617 105.273 11.7812 104.883 11.8203C104.492 11.8594 104.089 11.918 103.672 11.9961C103.255 12.0742 102.842 12.1719 102.432 12.2891C102.028 12.4062 101.65 12.5462 101.299 12.709L100.42 10.3359C100.856 10.1797 101.322 10.0365 101.816 9.90625C102.318 9.77604 102.829 9.66536 103.35 9.57422C103.87 9.47656 104.391 9.40169 104.912 9.34961C105.433 9.29753 105.938 9.27148 106.426 9.27148C108.581 9.27148 110.182 9.82161 111.23 10.9219C112.279 12.0221 112.803 13.7083 112.803 15.9805V21H109.912V19.916C109.613 20.0918 109.284 20.2578 108.926 20.4141C108.574 20.5703 108.19 20.707 107.773 20.8242C107.357 20.9414 106.908 21.0326 106.426 21.0977C105.951 21.1693 105.446 21.2051 104.912 21.2051C104.014 21.2051 103.223 21.1074 102.539 20.9121C101.862 20.7168 101.296 20.4466 100.84 20.1016C100.384 19.7565 100.039 19.3529 99.8047 18.8906C99.5768 18.4219 99.4629 17.9141 99.4629 17.3672ZM102.51 17.2695C102.51 17.4583 102.559 17.6406 102.656 17.8164C102.754 17.9857 102.91 18.1387 103.125 18.2754C103.34 18.4056 103.613 18.513 103.945 18.5977C104.284 18.6758 104.691 18.7148 105.166 18.7148C105.674 18.7148 106.165 18.6693 106.641 18.5781C107.116 18.487 107.559 18.3665 107.969 18.2168C108.379 18.0671 108.75 17.8945 109.082 17.6992C109.414 17.5039 109.691 17.3021 109.912 17.0938V16.5859C109.469 16.4622 109.03 16.3581 108.594 16.2734C108.164 16.1888 107.751 16.1237 107.354 16.0781C106.963 16.026 106.592 15.9902 106.24 15.9707C105.895 15.9512 105.592 15.9414 105.332 15.9414C104.792 15.9414 104.342 15.9772 103.984 16.0488C103.626 16.1204 103.337 16.2181 103.115 16.3418C102.894 16.459 102.738 16.599 102.646 16.7617C102.555 16.9245 102.51 17.0938 102.51 17.2695ZM118.369 11.6445H115.586V9.47656H118.369V5.89258H121.26V9.47656H124.043V11.6445H121.26V21H118.369V11.6445ZM126.611 4.80859H129.502V10.3555C130.107 10.0234 130.781 9.75977 131.523 9.56445C132.272 9.36914 133.057 9.27148 133.877 9.27148C134.827 9.27148 135.68 9.41146 136.436 9.69141C137.197 9.97135 137.842 10.375 138.369 10.9023C138.896 11.4232 139.3 12.0579 139.58 12.8066C139.867 13.5553 140.01 14.3984 140.01 15.3359V21H137.129V15.4531C137.129 14.9062 137.041 14.4082 136.865 13.959C136.689 13.5033 136.432 13.1126 136.094 12.7871C135.755 12.4616 135.342 12.2109 134.854 12.0352C134.372 11.8529 133.825 11.7617 133.213 11.7617C132.477 11.7617 131.794 11.8789 131.162 12.1133C130.531 12.3477 129.977 12.6439 129.502 13.002V21H126.611V4.80859Z" fill="white"/>
<path d="M37.168 5.73633V5.33633H36.768V5.73633H37.168ZM50.4004 7.2207L50.1412 7.5254L50.1433 7.52712L50.4004 7.2207ZM51.6602 8.96875L51.2883 9.1161L51.2895 9.11911L51.6602 8.96875ZM50.4102 15.3555L50.677 15.6535L50.6772 15.6533L50.4102 15.3555ZM48.2812 16.5371L48.4051 16.9174L48.4077 16.9166L48.2812 16.5371ZM45.2344 16.957L45.2336 17.357H45.2344V16.957ZM40.2637 16.9473L40.2645 16.5473L39.8637 16.5465V16.9473H40.2637ZM40.2637 21V21.4H40.6637V21H40.2637ZM37.168 21H36.768V21.4H37.168V21ZM46.8262 14.0664L46.9458 14.4481L46.9493 14.447L46.8262 14.0664ZM47.9297 13.4707L48.1917 13.773L48.1922 13.7725L47.9297 13.4707ZM48.5938 12.5332L48.2228 12.3835L48.2214 12.3869L48.5938 12.5332ZM47.9297 9.19336L47.6677 9.49566L47.6713 9.49871L47.9297 9.19336ZM40.2637 8.43164V8.03164H39.8637V8.43164H40.2637ZM40.2637 14.2715H39.8637V14.6715H40.2637V14.2715ZM37.168 6.13633H45.2148V5.33633H37.168V6.13633ZM45.2148 6.13633C46.3594 6.13633 47.3351 6.26051 48.1484 6.50079L48.3751 5.73358C47.4696 5.46605 46.414 5.33633 45.2148 5.33633V6.13633ZM48.1484 6.50079C48.9649 6.74205 49.6252 7.08646 50.1412 7.52539L50.6596 6.91601C50.0428 6.39141 49.2772 6.00013 48.3751 5.73358L48.1484 6.50079ZM50.1433 7.52712C50.6586 7.95953 51.0392 8.48746 51.2883 9.1161L52.032 8.8214C51.7342 8.06983 51.275 7.4324 50.6575 6.91428L50.1433 7.52712ZM51.2895 9.11911C51.5472 9.75434 51.6801 10.4801 51.6801 11.3027H52.4801C52.4801 10.3936 52.333 9.56337 52.0308 8.81839L51.2895 9.11911ZM51.6801 11.3027C51.6801 12.071 51.5512 12.7724 51.298 13.4112L52.0418 13.7059C52.3355 12.9646 52.4801 12.1621 52.4801 11.3027H51.6801ZM51.298 13.4112C51.048 14.0423 50.6646 14.5901 50.1431 15.0576L50.6772 15.6533C51.2885 15.1052 51.745 14.4551 52.0418 13.7059L51.298 13.4112ZM50.1433 15.0575C49.6316 15.5156 48.9727 15.885 48.1548 16.1576L48.4077 16.9166C49.3085 16.6163 50.0689 16.1979 50.677 15.6535L50.1433 15.0575ZM48.1574 16.1568C47.3478 16.4205 46.376 16.557 45.2344 16.557V17.357C46.4365 17.357 47.4959 17.2136 48.4051 16.9174L48.1574 16.1568ZM45.2352 16.557L40.2645 16.5473L40.2629 17.3473L45.2336 17.357L45.2352 16.557ZM39.8637 16.9473V21H40.6637V16.9473H39.8637ZM40.2637 20.6H37.168V21.4H40.2637V20.6ZM37.568 21V5.73633H36.768V21H37.568ZM45.293 14.6715C45.9087 14.6715 46.4618 14.5998 46.9458 14.4481L46.7065 13.6847C46.3182 13.8064 45.8492 13.8715 45.293 13.8715V14.6715ZM46.9493 14.447C47.4331 14.2905 47.8509 14.0683 48.1917 13.773L47.6677 13.1684C47.4226 13.3809 47.1047 13.5559 46.703 13.6858L46.9493 14.447ZM48.1922 13.7725C48.5396 13.4704 48.799 13.1048 48.9661 12.6795L48.2214 12.3869C48.1021 12.6908 47.9188 12.9501 47.6672 13.1689L48.1922 13.7725ZM48.9647 12.6829C49.1358 12.2587 49.2184 11.797 49.2184 11.3027H48.4184C48.4184 11.7069 48.3511 12.0655 48.2228 12.3835L48.9647 12.6829ZM49.2184 11.3027C49.2184 10.3018 48.8857 9.47828 48.1881 8.888L47.6713 9.49871C48.1586 9.91104 48.4184 10.4938 48.4184 11.3027H49.2184ZM48.1917 8.89108C47.5037 8.29488 46.5136 8.03164 45.293 8.03164V8.83164C46.4161 8.83164 47.1838 9.07622 47.6677 9.49564L48.1917 8.89108ZM45.293 8.03164H40.2637V8.83164H45.293V8.03164ZM39.8637 8.43164V14.2715H40.6637V8.43164H39.8637ZM40.2637 14.6715H45.293V13.8715H40.2637V14.6715ZM55.1074 9.47656V9.07656H54.7074V9.47656H55.1074ZM57.998 9.47656H58.398V9.07656H57.998V9.47656ZM57.998 11.1367H57.598V11.9335L58.237 11.4575L57.998 11.1367ZM62.1387 9.11523L62.5195 8.99297L62.404 8.63321L62.0383 8.72804L62.1387 9.11523ZM62.9883 11.7617L63.0279 12.1598L63.5205 12.1108L63.3691 11.6395L62.9883 11.7617ZM60.0488 12.5137L60.2152 12.8774L60.2165 12.8769L60.0488 12.5137ZM57.998 14.1445L57.678 13.9045L57.598 14.0112V14.1445H57.998ZM57.998 21V21.4H58.398V21H57.998ZM55.1074 21H54.7074V21.4H55.1074V21ZM55.1074 9.87656H57.998V9.07656H55.1074V9.87656ZM57.598 9.47656V11.1367H58.398V9.47656H57.598ZM58.237 11.4575C58.8551 10.9971 59.5075 10.6 60.1944 10.266L59.8446 9.54652C59.1123 9.90261 58.417 10.3258 57.7591 10.8159L58.237 11.4575ZM60.1944 10.266C60.8822 9.93155 61.5637 9.67752 62.2391 9.50243L62.0383 8.72804C61.3074 8.91753 60.5761 9.19085 59.8446 9.54652L60.1944 10.266ZM61.7578 9.2375L62.6074 11.884L63.3691 11.6395L62.5195 8.99297L61.7578 9.2375ZM62.9487 11.3637C61.7997 11.4779 60.7752 11.7379 59.8812 12.1505L60.2165 12.8769C61.0152 12.5082 61.9503 12.2669 63.0279 12.1598L62.9487 11.3637ZM59.8825 12.1499C58.9851 12.5603 58.2475 13.1452 57.678 13.9045L58.318 14.3845C58.8033 13.7376 59.4329 13.2352 60.2152 12.8774L59.8825 12.1499ZM57.598 14.1445V21H58.398V14.1445H57.598ZM57.998 20.6H55.1074V21.4H57.998V20.6ZM55.5074 21V9.47656H54.7074V21H55.5074ZM64.9512 12.9141L64.5889 12.7444L64.5877 12.7471L64.9512 12.9141ZM66.3867 11.0195L66.1251 10.7169L66.1235 10.7183L66.3867 11.0195ZM68.6426 9.74023L68.5094 9.36304L68.5086 9.36335L68.6426 9.74023ZM74.5898 9.74023L74.4558 10.1171L74.4567 10.1174L74.5898 9.74023ZM76.8457 11.0195L76.5825 11.3208L76.5841 11.3221L76.8457 11.0195ZM78.2812 12.9141L77.9178 13.0811L77.919 13.0838L78.2812 12.9141ZM78.2812 17.5625L77.919 17.3928L77.9178 17.3955L78.2812 17.5625ZM76.8457 19.457L76.5841 19.1544L76.5825 19.1558L76.8457 19.457ZM74.5898 20.7363L74.4567 20.3591L74.4558 20.3594L74.5898 20.7363ZM68.6426 20.7363L68.5086 21.1132L68.5094 21.1135L68.6426 20.7363ZM66.3867 19.457L66.1235 19.7583L66.1251 19.7596L66.3867 19.457ZM64.9512 17.5625L64.5877 17.7295L64.5889 17.7322L64.9512 17.5625ZM67.7637 16.5566L67.3971 16.717L67.4003 16.7239L67.7637 16.5566ZM68.5742 17.6504L68.3054 17.9467L68.3112 17.9518L68.5742 17.6504ZM69.873 18.4023L69.7336 18.7773L69.7394 18.7794L69.873 18.4023ZM73.3594 18.4023L73.4945 18.7788L73.4972 18.7778L73.3594 18.4023ZM74.6582 17.6504L74.924 17.9494L74.9243 17.9491L74.6582 17.6504ZM75.4688 16.5566L75.1044 16.3915L75.1032 16.3942L75.4688 16.5566ZM75.4688 13.9199L75.1023 14.0803L75.1044 14.085L75.4688 13.9199ZM74.6582 12.8262L74.3894 13.1225L74.3952 13.1275L74.6582 12.8262ZM73.3594 12.0742L73.22 12.4492L73.2257 12.4512L73.3594 12.0742ZM69.873 12.0742L70.0082 12.4507L70.0109 12.4497L69.873 12.0742ZM68.5742 12.8262L68.84 13.1251L68.8403 13.1248L68.5742 12.8262ZM67.7637 13.9199L67.3993 13.7548L67.3972 13.7596L67.7637 13.9199ZM64.8531 15.2383C64.8531 14.4668 65.0076 13.7492 65.3146 13.0811L64.5877 12.7471C64.2306 13.5242 64.0531 14.3562 64.0531 15.2383H64.8531ZM65.3134 13.0838C65.6277 12.4128 66.0719 11.8257 66.6499 11.3208L66.1235 10.7183C65.4645 11.2941 64.9517 11.97 64.5889 12.7444L65.3134 13.0838ZM66.6483 11.3221C67.2312 10.8181 67.9385 10.4151 68.7766 10.1171L68.5086 9.36335C67.5889 9.69035 66.7922 10.1402 66.1251 10.7169L66.6483 11.3221ZM68.7757 10.1174C69.6117 9.82237 70.5586 9.67148 71.6211 9.67148V8.87148C70.4831 8.87148 69.4443 9.0331 68.5094 9.36304L68.7757 10.1174ZM71.6211 9.67148C72.6837 9.67148 73.6269 9.82239 74.4558 10.1171L74.7238 9.36335C73.795 9.03308 72.759 8.87148 71.6211 8.87148V9.67148ZM74.4567 10.1174C75.3011 10.4155 76.0072 10.8181 76.5825 11.3208L77.1089 10.7183C76.4472 10.1402 75.6494 9.69001 74.723 9.36304L74.4567 10.1174ZM76.5841 11.3221C77.1676 11.8266 77.6106 12.4124 77.9178 13.0811L78.6447 12.7471C78.2879 11.9704 77.7738 11.2932 77.1073 10.7169L76.5841 11.3221ZM77.919 13.0838C78.2318 13.7514 78.3891 14.4679 78.3891 15.2383H79.1891C79.1891 14.355 79.0078 13.5221 78.6435 12.7444L77.919 13.0838ZM78.3891 15.2383C78.3891 16.0086 78.2318 16.7252 77.919 17.3928L78.6435 17.7322C79.0078 16.9545 79.1891 16.1216 79.1891 15.2383H78.3891ZM77.9178 17.3955C77.6106 18.0642 77.1676 18.65 76.5841 19.1544L77.1073 19.7596C77.7738 19.1833 78.2879 18.5061 78.6447 17.7295L77.9178 17.3955ZM76.5825 19.1558C76.0072 19.6584 75.3011 20.0611 74.4567 20.3591L74.723 21.1135C75.6494 20.7866 76.4472 20.3364 77.1089 19.7583L76.5825 19.1558ZM74.4558 20.3594C73.6269 20.6542 72.6837 20.8051 71.6211 20.8051V21.6051C72.759 21.6051 73.795 21.4435 74.7238 21.1132L74.4558 20.3594ZM71.6211 20.8051C70.5586 20.8051 69.6117 20.6542 68.7757 20.3591L68.5094 21.1135C69.4443 21.4435 70.4831 21.6051 71.6211 21.6051V20.8051ZM68.7766 20.3594C67.9385 20.0614 67.2312 19.6584 66.6483 19.1544L66.1251 19.7596C66.7922 20.3364 67.5889 20.7862 68.5086 21.1132L68.7766 20.3594ZM66.6499 19.1558C66.0719 18.6509 65.6277 18.0637 65.3134 17.3928L64.5889 17.7322C64.9517 18.5066 65.4645 19.1825 66.1235 19.7583L66.6499 19.1558ZM65.3146 17.3955C65.0076 16.7273 64.8531 16.0098 64.8531 15.2383H64.0531C64.0531 16.1204 64.2306 16.9524 64.5877 17.7295L65.3146 17.3955ZM67.0902 15.2383C67.0902 15.7548 67.1924 16.2489 67.3972 16.717L68.1301 16.3963C67.9703 16.031 67.8902 15.6463 67.8902 15.2383H67.0902ZM67.4003 16.7239C67.6128 17.1855 67.9161 17.5933 68.3054 17.9466L68.843 17.3542C68.5292 17.0695 68.2922 16.7481 68.127 16.3894L67.4003 16.7239ZM68.3112 17.9518C68.7104 18.3002 69.1868 18.574 69.7337 18.7773L70.0124 18.0274C69.5437 17.8531 69.1542 17.6256 68.8372 17.349L68.3112 17.9518ZM69.7394 18.7794C70.304 18.9795 70.9331 19.0758 71.6211 19.0758V18.2758C71.007 18.2758 70.4707 18.1898 70.0067 18.0253L69.7394 18.7794ZM71.6211 19.0758C72.309 19.0758 72.9354 18.9795 73.4945 18.7788L73.2242 18.0259C72.7677 18.1898 72.2353 18.2758 71.6211 18.2758V19.0758ZM73.4972 18.7778C74.051 18.5746 74.5293 18.3002 74.924 17.9494L74.3925 17.3514C74.084 17.6256 73.6964 17.8525 73.2215 18.0268L73.4972 18.7778ZM74.9243 17.9491C75.3219 17.5949 75.6273 17.1847 75.8343 16.7191L75.1032 16.3942C74.9456 16.7489 74.7107 17.0679 74.3921 17.3517L74.9243 17.9491ZM75.8331 16.7217C76.0456 16.2526 76.152 15.7568 76.152 15.2383H75.352C75.352 15.6442 75.2695 16.0273 75.1044 16.3915L75.8331 16.7217ZM76.152 15.2383C76.152 14.7197 76.0456 14.2239 75.8331 13.7548L75.1044 14.085C75.2695 14.4493 75.352 14.8324 75.352 15.2383H76.152ZM75.8352 13.7596C75.6282 13.2864 75.3217 12.8743 74.9212 12.5248L74.3952 13.1275C74.7108 13.403 74.9447 13.7201 75.1023 14.0802L75.8352 13.7596ZM74.927 12.5299C74.5308 12.1704 74.0499 11.8946 73.493 11.6972L73.2257 12.4512C73.6975 12.6184 74.0825 12.8439 74.3894 13.1224L74.927 12.5299ZM73.4988 11.6993C72.9384 11.4909 72.3104 11.391 71.6211 11.391V12.191C72.2339 12.191 72.7648 12.2799 73.22 12.4491L73.4988 11.6993ZM71.6211 11.391C70.9317 11.391 70.3011 11.491 69.7352 11.6987L70.0109 12.4497C70.4736 12.2799 71.0084 12.191 71.6211 12.191V11.391ZM69.7379 11.6977C69.1879 11.8952 68.709 12.1704 68.3081 12.5275L68.8403 13.1248C69.1556 12.8439 69.5426 12.6178 70.0082 12.4507L69.7379 11.6977ZM68.3085 12.5272C67.9162 12.8759 67.6119 13.2857 67.3993 13.7548L68.128 14.085C68.293 13.7208 68.5291 13.4015 68.84 13.1251L68.3085 12.5272ZM67.3972 13.7596C67.1924 14.2277 67.0902 14.7218 67.0902 15.2383H67.8902C67.8902 14.8303 67.9703 14.4455 68.1301 14.0802L67.3972 13.7596ZM82.0703 5.73633V5.33633H81.6703V5.73633H82.0703ZM95.3027 7.2207L95.0436 7.5254L95.0456 7.52712L95.3027 7.2207ZM96.5625 8.96875L96.1906 9.1161L96.1918 9.11911L96.5625 8.96875ZM95.3125 15.3555L95.5793 15.6535L95.5795 15.6533L95.3125 15.3555ZM93.1836 16.5371L93.3075 16.9174L93.3101 16.9166L93.1836 16.5371ZM90.1367 16.957L90.1359 17.357H90.1367V16.957ZM85.166 16.9473L85.1668 16.5473L84.766 16.5465V16.9473H85.166ZM85.166 21V21.4H85.566V21H85.166ZM82.0703 21H81.6703V21.4H82.0703V21ZM91.7285 14.0664L91.8482 14.4481L91.8516 14.447L91.7285 14.0664ZM92.832 13.4707L93.094 13.773L93.0945 13.7725L92.832 13.4707ZM93.4961 12.5332L93.1251 12.3835L93.1238 12.3869L93.4961 12.5332ZM92.832 9.19336L92.57 9.49566L92.5737 9.49871L92.832 9.19336ZM85.166 8.43164V8.03164H84.766V8.43164H85.166ZM85.166 14.2715H84.766V14.6715H85.166V14.2715ZM82.0703 6.13633H90.1172V5.33633H82.0703V6.13633ZM90.1172 6.13633C91.2618 6.13633 92.2374 6.26051 93.0507 6.50079L93.2774 5.73358C92.3719 5.46605 91.3163 5.33633 90.1172 5.33633V6.13633ZM93.0507 6.50079C93.8673 6.74205 94.5275 7.08646 95.0436 7.52539L95.5619 6.91601C94.9451 6.39141 94.1796 6.00013 93.2774 5.73358L93.0507 6.50079ZM95.0456 7.52712C95.561 7.95953 95.9415 8.48746 96.1906 9.1161L96.9344 8.8214C96.6366 8.06983 96.1773 7.4324 95.5598 6.91428L95.0456 7.52712ZM96.1918 9.11911C96.4495 9.75434 96.5824 10.4801 96.5824 11.3027H97.3824C97.3824 10.3936 97.2354 9.56337 96.9332 8.81839L96.1918 9.11911ZM96.5824 11.3027C96.5824 12.071 96.4535 12.7724 96.2004 13.4112L96.9441 13.7059C97.2379 12.9646 97.3824 12.1621 97.3824 11.3027H96.5824ZM96.2004 13.4112C95.9504 14.0423 95.5669 14.5901 95.0455 15.0576L95.5795 15.6533C96.1909 15.1052 96.6473 14.4551 96.9441 13.7059L96.2004 13.4112ZM95.0457 15.0575C94.534 15.5156 93.8751 15.885 93.0571 16.1576L93.3101 16.9166C94.2109 16.6163 94.9712 16.1979 95.5793 15.6535L95.0457 15.0575ZM93.0597 16.1568C92.2502 16.4205 91.2783 16.557 90.1367 16.557V17.357C91.3389 17.357 92.3983 17.2136 93.3075 16.9174L93.0597 16.1568ZM90.1375 16.557L85.1668 16.5473L85.1652 17.3473L90.1359 17.357L90.1375 16.557ZM84.766 16.9473V21H85.566V16.9473H84.766ZM85.166 20.6H82.0703V21.4H85.166V20.6ZM82.4703 21V5.73633H81.6703V21H82.4703ZM90.1953 14.6715C90.811 14.6715 91.3641 14.5998 91.8481 14.4481L91.6089 13.6847C91.2205 13.8064 90.7515 13.8715 90.1953 13.8715V14.6715ZM91.8516 14.447C92.3354 14.2905 92.7532 14.0683 93.094 13.773L92.5701 13.1684C92.3249 13.3809 92.007 13.5559 91.6054 13.6858L91.8516 14.447ZM93.0945 13.7725C93.4419 13.4704 93.7013 13.1048 93.8684 12.6795L93.1238 12.3869C93.0044 12.6908 92.8211 12.9501 92.5696 13.1689L93.0945 13.7725ZM93.867 12.6829C94.0382 12.2587 94.1207 11.797 94.1207 11.3027H93.3207C93.3207 11.7069 93.2535 12.0655 93.1252 12.3835L93.867 12.6829ZM94.1207 11.3027C94.1207 10.3018 93.788 9.47828 93.0904 8.888L92.5737 9.49871C93.0609 9.91104 93.3207 10.4938 93.3207 11.3027H94.1207ZM93.094 8.89108C92.4061 8.29488 91.4159 8.03164 90.1953 8.03164V8.83164C91.3184 8.83164 92.0861 9.07622 92.5701 9.49564L93.094 8.89108ZM90.1953 8.03164H85.166V8.83164H90.1953V8.03164ZM84.766 8.43164V14.2715H85.566V8.43164H84.766ZM85.166 14.6715H90.1953V13.8715H85.166V14.6715ZM99.8242 15.8535L99.4706 15.6666L99.8242 15.8535ZM100.908 14.6816L101.132 15.0131L101.135 15.011L100.908 14.6816ZM102.705 13.9199L102.8 14.3084L102.803 14.3078L102.705 13.9199ZM107.461 13.8027L107.408 14.1992L107.409 14.1993L107.461 13.8027ZM109.893 14.2812L109.793 14.6686L110.341 14.81L110.291 14.2457L109.893 14.2812ZM109.561 13.2754L109.218 13.4822L109.22 13.4854L109.561 13.2754ZM108.77 12.4746L108.543 12.8045L108.551 12.8094L108.77 12.4746ZM107.559 11.9473L107.457 12.334L107.458 12.3344L107.559 11.9473ZM102.432 12.2891L102.322 11.9044L102.32 11.9049L102.432 12.2891ZM101.299 12.709L100.924 12.8479L101.074 13.2538L101.467 13.072L101.299 12.709ZM100.42 10.3359L100.285 9.95937L99.9044 10.0957L100.045 10.4749L100.42 10.3359ZM101.816 9.90625L101.716 9.51909L101.715 9.51942L101.816 9.90625ZM103.35 9.57422L103.419 9.96826L103.423 9.96737L103.35 9.57422ZM111.23 10.9219L110.941 11.1978L111.23 10.9219ZM112.803 21V21.4H113.203V21H112.803ZM109.912 21H109.512V21.4H109.912V21ZM109.912 19.916H110.312V19.2174L109.71 19.571L109.912 19.916ZM108.926 20.4141L108.766 20.0474L108.763 20.0485L108.926 20.4141ZM106.426 21.0977L106.372 20.7012L106.366 20.7021L106.426 21.0977ZM102.539 20.9121L102.428 21.2964L102.429 21.2967L102.539 20.9121ZM100.84 20.1016L100.598 20.4205L100.84 20.1016ZM99.8047 18.8906L99.4449 19.0655L99.4479 19.0715L99.8047 18.8906ZM102.656 17.8164L102.307 18.0107L102.31 18.0163L102.656 17.8164ZM103.125 18.2754L102.91 18.6129L102.918 18.6175L103.125 18.2754ZM103.945 18.5977L103.846 18.9854L103.855 18.9874L103.945 18.5977ZM106.641 18.5781L106.565 18.1853L106.641 18.5781ZM109.912 17.0938L110.186 17.385L110.312 17.2666V17.0938H109.912ZM109.912 16.5859H110.312V16.2824L110.02 16.2007L109.912 16.5859ZM108.594 16.2734L108.516 16.6659L108.518 16.6661L108.594 16.2734ZM107.354 16.0781L107.301 16.4747L107.308 16.4755L107.354 16.0781ZM106.24 15.9707L106.218 16.3701L106.218 16.3701L106.24 15.9707ZM103.984 16.0488L104.063 16.4411L103.984 16.0488ZM103.115 16.3418L103.302 16.6954L103.31 16.691L103.115 16.3418ZM99.8629 17.3672C99.8629 16.874 99.9696 16.4344 100.178 16.0404L99.4706 15.6666C99.197 16.1841 99.0629 16.7536 99.0629 17.3672H99.8629ZM100.178 16.0404C100.384 15.6499 100.698 15.3066 101.132 15.0131L100.684 14.3502C100.155 14.7077 99.7459 15.1457 99.4706 15.6666L100.178 16.0404ZM101.135 15.011C101.568 14.7126 102.12 14.4755 102.8 14.3084L102.61 13.5315C101.858 13.7159 101.212 13.9866 100.681 14.3523L101.135 15.011ZM102.803 14.3078C103.486 14.1355 104.292 14.0465 105.225 14.0465V13.2465C104.243 13.2465 103.369 13.3398 102.607 13.5321L102.803 14.3078ZM105.225 14.0465C105.915 14.0465 106.642 14.0971 107.408 14.1992L107.514 13.4062C106.717 13.3 105.954 13.2465 105.225 13.2465V14.0465ZM107.409 14.1993C108.179 14.3012 108.974 14.4574 109.793 14.6686L109.992 13.8939C109.145 13.6754 108.318 13.5126 107.513 13.4062L107.409 14.1993ZM110.291 14.2457C110.253 13.8204 110.123 13.4252 109.901 13.0653L109.22 13.4854C109.376 13.7376 109.467 14.013 109.494 14.3168L110.291 14.2457ZM109.903 13.0685C109.68 12.6994 109.372 12.3904 108.988 12.1398L108.551 12.8094C108.844 13.0015 109.064 13.2264 109.218 13.4822L109.903 13.0685ZM108.996 12.1448C108.618 11.8857 108.17 11.6931 107.659 11.5602L107.458 12.3344C107.898 12.4489 108.257 12.6078 108.543 12.8044L108.996 12.1448ZM107.661 11.5605C107.152 11.4262 106.583 11.3617 105.957 11.3617V12.1617C106.529 12.1617 107.028 12.2209 107.457 12.334L107.661 11.5605ZM105.957 11.3617C105.616 11.3617 105.244 11.3822 104.843 11.4223L104.923 12.2183C105.303 12.1803 105.647 12.1617 105.957 12.1617V11.3617ZM104.843 11.4223C104.44 11.4626 104.025 11.5229 103.598 11.6029L103.746 12.3892C104.152 12.3131 104.544 12.2562 104.923 12.2183L104.843 11.4223ZM103.598 11.6029C103.169 11.6834 102.744 11.7839 102.322 11.9045L102.542 12.6737C102.94 12.5599 103.341 12.4651 103.746 12.3892L103.598 11.6029ZM102.32 11.9049C101.899 12.0273 101.502 12.1741 101.131 12.346L101.467 13.072C101.799 12.9184 102.157 12.7852 102.543 12.6732L102.32 11.9049ZM101.674 12.5701L100.795 10.197L100.045 10.4749L100.924 12.8479L101.674 12.5701ZM100.555 10.7125C100.979 10.5605 101.433 10.4206 101.918 10.2931L101.715 9.51942C101.21 9.65227 100.733 9.79884 100.285 9.95937L100.555 10.7125ZM101.917 10.2934C102.408 10.166 102.908 10.0576 103.419 9.96823L103.281 9.18021C102.749 9.27317 102.228 9.38612 101.716 9.5191L101.917 10.2934ZM103.423 9.96737C103.933 9.87179 104.443 9.79856 104.952 9.74762L104.872 8.95159C104.34 9.00483 103.808 9.08133 103.276 9.18107L103.423 9.96737ZM104.952 9.74762C105.46 9.69677 105.952 9.67148 106.426 9.67148V8.87148C105.923 8.87148 105.405 8.89828 104.872 8.95159L104.952 9.74762ZM106.426 9.67148C108.518 9.67148 109.995 10.2051 110.941 11.1978L111.52 10.646C110.369 9.4381 108.644 8.87148 106.426 8.87148V9.67148ZM110.941 11.1978C111.89 12.194 112.403 13.7611 112.403 15.9805H113.203C113.203 13.6556 112.667 11.8503 111.52 10.646L110.941 11.1978ZM112.403 15.9805V21H113.203V15.9805H112.403ZM112.803 20.6H109.912V21.4H112.803V20.6ZM110.312 21V19.916H109.512V21H110.312ZM109.71 19.571C109.425 19.7379 109.111 19.8968 108.766 20.0474L109.086 20.7807C109.457 20.6188 109.8 20.4457 110.115 20.261L109.71 19.571ZM108.763 20.0485C108.431 20.1961 108.066 20.3265 107.665 20.4392L107.882 21.2093C108.315 21.0875 108.717 20.9445 109.088 20.7796L108.763 20.0485ZM107.665 20.4392C107.268 20.5507 106.838 20.6384 106.372 20.7013L106.479 21.4941C106.977 21.4268 107.445 21.3321 107.882 21.2093L107.665 20.4392ZM106.366 20.7021C105.913 20.7705 105.428 20.8051 104.912 20.8051V21.6051C105.464 21.6051 105.988 21.5681 106.485 21.4932L106.366 20.7021ZM104.912 20.8051C104.042 20.8051 103.289 20.7103 102.649 20.5275L102.429 21.2967C103.156 21.5045 103.986 21.6051 104.912 21.6051V20.8051ZM102.65 20.5278C102.009 20.343 101.49 20.0921 101.081 19.7827L100.598 20.4205C101.101 20.8012 101.715 21.0906 102.428 21.2964L102.65 20.5278ZM101.081 19.7827C100.669 19.4704 100.366 19.1124 100.161 18.7097L99.4479 19.0715C99.7125 19.5933 100.099 20.0426 100.598 20.4205L101.081 19.7827ZM100.164 18.7157C99.9644 18.3042 99.8629 17.8565 99.8629 17.3672H99.0629C99.0629 17.9716 99.1893 18.5396 99.4449 19.0655L100.164 18.7157ZM102.11 17.2695C102.11 17.5307 102.178 17.7795 102.307 18.0107L103.006 17.6221C102.939 17.5018 102.91 17.3859 102.91 17.2695H102.11ZM102.31 18.0163C102.448 18.2557 102.657 18.4517 102.91 18.6129L103.34 17.9379C103.163 17.8257 103.06 17.7157 103.003 17.6165L102.31 18.0163ZM102.918 18.6175C103.176 18.774 103.489 18.8942 103.847 18.9853L104.044 18.2101C103.737 18.1319 103.504 18.0372 103.332 17.9333L102.918 18.6175ZM103.855 18.9874C104.232 19.0743 104.671 19.1148 105.166 19.1148V18.3148C104.711 18.3148 104.336 18.2772 104.035 18.2079L103.855 18.9874ZM105.166 19.1148C105.698 19.1148 106.215 19.0671 106.716 18.971L106.565 18.1853C106.116 18.2714 105.65 18.3148 105.166 18.3148V19.1148ZM106.716 18.971C107.21 18.8762 107.674 18.7504 108.106 18.5925L107.832 17.8411C107.444 17.9827 107.022 18.0977 106.565 18.1853L106.716 18.971ZM108.106 18.5925C108.536 18.4356 108.929 18.2531 109.285 18.044L108.879 17.3544C108.571 17.536 108.222 17.6985 107.832 17.8411L108.106 18.5925ZM109.285 18.044C109.636 17.8374 109.938 17.6184 110.186 17.385L109.638 16.8025C109.443 16.9858 109.192 17.1704 108.879 17.3544L109.285 18.044ZM110.312 17.0938V16.5859H109.512V17.0938H110.312ZM110.02 16.2007C109.567 16.0742 109.117 15.9675 108.67 15.8808L108.518 16.6661C108.943 16.7486 109.372 16.8503 109.804 16.9712L110.02 16.2007ZM108.671 15.881C108.232 15.7945 107.808 15.7276 107.399 15.6807L107.308 16.4755C107.693 16.5198 108.096 16.5831 108.516 16.6659L108.671 15.881ZM107.406 15.6816C107.007 15.6283 106.625 15.5915 106.262 15.5713L106.218 16.3701C106.558 16.389 106.919 16.4237 107.301 16.4746L107.406 15.6816ZM106.263 15.5713C105.913 15.5515 105.602 15.5414 105.332 15.5414V16.3414C105.583 16.3414 105.878 16.3508 106.218 16.3701L106.263 15.5713ZM105.332 15.5414C104.777 15.5414 104.299 15.578 103.906 15.6566L104.063 16.4411C104.386 16.3764 104.807 16.3414 105.332 16.3414V15.5414ZM103.906 15.6566C103.523 15.7331 103.19 15.8418 102.92 15.9926L103.31 16.691C103.483 16.5944 103.729 16.5078 104.063 16.4411L103.906 15.6566ZM102.928 15.9883C102.661 16.1295 102.437 16.317 102.297 16.5663L102.995 16.9572C103.038 16.8809 103.126 16.7885 103.302 16.6953L102.928 15.9883ZM102.297 16.5663C102.175 16.785 102.11 17.0211 102.11 17.2695H102.91C102.91 17.1664 102.936 17.064 102.995 16.9572L102.297 16.5663ZM118.369 11.6445H118.769V11.2445H118.369V11.6445ZM115.586 11.6445H115.186V12.0445H115.586V11.6445ZM115.586 9.47656V9.07656H115.186V9.47656H115.586ZM118.369 9.47656V9.87656H118.769V9.47656H118.369ZM118.369 5.89258V5.49258H117.969V5.89258H118.369ZM121.26 5.89258H121.66V5.49258H121.26V5.89258ZM121.26 9.47656H120.86V9.87656H121.26V9.47656ZM124.043 9.47656H124.443V9.07656H124.043V9.47656ZM124.043 11.6445V12.0445H124.443V11.6445H124.043ZM121.26 11.6445V11.2445H120.86V11.6445H121.26ZM121.26 21V21.4H121.66V21H121.26ZM118.369 21H117.969V21.4H118.369V21ZM118.369 11.2445H115.586V12.0445H118.369V11.2445ZM115.986 11.6445V9.47656H115.186V11.6445H115.986ZM115.586 9.87656H118.369V9.07656H115.586V9.87656ZM118.769 9.47656V5.89258H117.969V9.47656H118.769ZM118.369 6.29258H121.26V5.49258H118.369V6.29258ZM120.86 5.89258V9.47656H121.66V5.89258H120.86ZM121.26 9.87656H124.043V9.07656H121.26V9.87656ZM123.643 9.47656V11.6445H124.443V9.47656H123.643ZM124.043 11.2445H121.26V12.0445H124.043V11.2445ZM120.86 11.6445V21H121.66V11.6445H120.86ZM121.26 20.6H118.369V21.4H121.26V20.6ZM118.769 21V11.6445H117.969V21H118.769ZM126.611 4.80859V4.40859H126.211V4.80859H126.611ZM129.502 4.80859H129.902V4.40859H129.502V4.80859ZM129.502 10.3555H129.102V11.031L129.694 10.7062L129.502 10.3555ZM131.523 9.56445L131.422 9.17741L131.422 9.17762L131.523 9.56445ZM136.436 9.69141L136.297 10.0665L136.298 10.0669L136.436 9.69141ZM138.369 10.9023L138.086 11.1852L138.088 11.1869L138.369 10.9023ZM139.58 12.8066L139.205 12.9467L139.206 12.9496L139.58 12.8066ZM140.01 21V21.4H140.41V21H140.01ZM137.129 21H136.729V21.4H137.129V21ZM136.865 13.959L136.492 14.1029L136.493 14.1047L136.865 13.959ZM134.854 12.0352L134.712 12.4093L134.718 12.4115L134.854 12.0352ZM129.502 13.002L129.261 12.6825L129.102 12.8025V13.002H129.502ZM129.502 21V21.4H129.902V21H129.502ZM126.611 21H126.211V21.4H126.611V21ZM126.611 5.20859H129.502V4.40859H126.611V5.20859ZM129.102 4.80859V10.3555H129.902V4.80859H129.102ZM129.694 10.7062C130.268 10.3915 130.911 10.1392 131.625 9.95128L131.422 9.17762C130.651 9.38033 129.947 9.6554 129.31 10.0047L129.694 10.7062ZM131.624 9.9515C132.338 9.76529 133.089 9.67148 133.877 9.67148V8.87148C133.025 8.87148 132.206 8.97299 131.422 9.17741L131.624 9.9515ZM133.877 9.67148C134.788 9.67148 135.593 9.80569 136.297 10.0665L136.575 9.31635C135.768 9.01723 134.867 8.87148 133.877 8.87148V9.67148ZM136.298 10.0669C137.01 10.3286 137.603 10.7024 138.086 11.1852L138.652 10.6195C138.08 10.0476 137.385 9.61412 136.574 9.31596L136.298 10.0669ZM138.088 11.1869C138.571 11.6638 138.944 12.2481 139.205 12.9467L139.955 12.6665C139.656 11.8678 139.222 11.1825 138.65 10.6178L138.088 11.1869ZM139.206 12.9496C139.473 13.6456 139.61 14.4392 139.61 15.3359H140.41C140.41 14.3577 140.26 13.4651 139.954 12.6637L139.206 12.9496ZM139.61 15.3359V21H140.41V15.3359H139.61ZM140.01 20.6H137.129V21.4H140.01V20.6ZM137.529 21V15.4531H136.729V21H137.529ZM137.529 15.4531C137.529 14.863 137.434 14.3147 137.238 13.8132L136.493 14.1047C136.648 14.5017 136.729 14.9495 136.729 15.4531H137.529ZM137.238 13.815C137.042 13.307 136.753 12.8665 136.371 12.4988L135.817 13.0754C136.111 13.3588 136.336 13.6995 136.492 14.1029L137.238 13.815ZM136.371 12.4988C135.988 12.1304 135.525 11.8516 134.989 11.6588L134.718 12.4115C135.159 12.5703 135.523 12.7928 135.817 13.0754L136.371 12.4988ZM134.995 11.661C134.46 11.4587 133.864 11.3617 133.213 11.3617V12.1617C133.785 12.1617 134.283 12.247 134.712 12.4093L134.995 11.661ZM133.213 11.3617C132.434 11.3617 131.703 11.4859 131.023 11.7383L131.301 12.4883C131.884 12.2719 132.52 12.1617 133.213 12.1617V11.3617ZM131.023 11.7383C130.36 11.9844 129.771 12.2982 129.261 12.6825L129.743 13.3214C130.183 12.9895 130.701 12.7109 131.301 12.4883L131.023 11.7383ZM129.102 13.002V21H129.902V13.002H129.102ZM129.502 20.6H126.611V21.4H129.502V20.6ZM127.011 21V4.80859H126.211V21H127.011Z" fill="white" mask="url(#path-1-outside-1_1020_5745)"/>
<path d="M5.27996 14.8662V22.9365C5.13942 23.786 4.64752 25.6974 2.53932 25.6974C0.676449 25.6974 0.0797404 23.9276 0.00946259 22.9365V14.8662C-0.327849 3.82275 8.44225 0 12.0262 0H20.6698C24.1132 0.353958 31 3.14315 31 11.4682C31 19.7933 25.3781 22.0162 22.5672 22.087H13.7128C11.9559 21.9454 8.44226 20.4305 8.44226 15.5034C8.44226 10.5763 12.5181 8.91975 14.556 8.70737H19.6157C20.5293 8.77816 22.5672 9.55687 22.5672 11.4682C22.5672 13.5141 20.6698 13.8752 19.6157 13.8044H15.3993C14.8371 13.946 13.7128 14.484 13.7128 15.5034C13.7128 16.5228 14.8371 16.9192 15.3993 16.99H21.3023C25.5187 16.3104 25.7295 13.8044 25.7295 11.4682C25.7295 7.00837 21.9347 5.59254 20.6698 5.52175H14.1344C7.21951 6.54115 5.35024 12.1762 5.27996 14.8662Z" fill="url(#paint0_linear_1020_5745)"/>
<defs>
<linearGradient id="paint0_linear_1020_5745" x1="15.2987" y1="3.18562" x2="15.503" y2="25.6973" gradientUnits="userSpaceOnUse">
<stop stop-color="#4385F5"/>
<stop offset="0.289583" stop-color="#EB4235"/>
<stop offset="0.586458" stop-color="#F8C52C"/>
<stop offset="0.925373" stop-color="#45AF64"/>
</linearGradient>
</defs>
</svg>
