<svg width="32" height="32" viewBox="0 0 32 32" fill="none" xmlns="http://www.w3.org/2000/svg">
<g clip-path="url(#clip0_515_1482)">
<path fill-rule="evenodd" clip-rule="evenodd" d="M15.9993 2.6665C23.3633 2.6665 29.3327 8.63584 29.3327 15.9998C29.3327 23.3638 23.3633 29.3332 15.9993 29.3332C8.63535 29.3332 2.66602 23.3638 2.66602 15.9998C2.66602 8.63584 8.63535 2.6665 15.9993 2.6665ZM18.1553 18.6452C14.7566 19.6458 11.7853 21.7445 9.70602 24.6132C11.5314 25.9507 13.7364 26.6701 15.9993 26.6665C17.4287 26.6665 18.7913 26.3865 20.0367 25.8758C19.6173 23.4159 18.9879 20.9963 18.1553 18.6438V18.6452ZM20.7927 18.1078C21.502 20.1652 22.0727 22.2878 22.4913 24.4652C24.4475 22.9652 25.8241 20.8344 26.3874 18.4345C24.5558 18.0003 22.6624 17.8898 20.7927 18.1078ZM16.4673 14.5492C12.8996 15.8073 9.09651 16.2555 5.33402 15.8612L5.33268 15.9998C5.33268 18.5692 6.24202 20.9265 7.75535 22.7678C10.1238 19.6247 13.4235 17.309 17.1847 16.1505C16.9563 15.6124 16.7171 15.079 16.4673 14.5505V14.5492ZM24.65 9.7585C22.9232 11.2666 20.9999 12.5337 18.9327 13.5252C19.2447 14.1918 19.542 14.8652 19.8233 15.5478C22.09 15.2012 24.4233 15.2732 26.6633 15.7625C26.6188 13.6029 25.9165 11.5083 24.65 9.7585ZM11.4313 6.35984C10.0378 7.02215 8.80404 7.97819 7.81484 9.16233C6.82564 10.3465 6.10442 11.7306 5.70068 13.2198C8.92122 13.5451 12.1741 13.1815 15.2433 12.1532C14.1268 10.1249 12.8522 8.18782 11.4313 6.35984ZM15.9993 5.33317C15.3593 5.33317 14.7327 5.38917 14.126 5.49717C15.461 7.29071 16.6654 9.17778 17.73 11.1438C19.5727 10.2663 21.2887 9.14418 22.8314 7.80784C20.9157 6.20558 18.4968 5.32941 15.9993 5.33317Z" fill="white"/>
</g>
<defs>
<clipPath id="clip0_515_1482">
<rect width="32" height="32" fill="white"/>
</clipPath>
</defs>
</svg>
